<?xml version="1.0" encoding="UTF-8"?>
<svg id="Layer_1" xmlns="http://www.w3.org/2000/svg" xmlns:xlink="http://www.w3.org/1999/xlink" version="1.1" viewBox="0 0 746.84 434.18">
  <!-- Generator: Adobe Illustrator 29.5.1, SVG Export Plug-In . SVG Version: 2.1.0 Build 141)  -->
  <defs>
    <style>
      .st0 {
        fill: #fcfbf9;
      }

      .st1 {
        fill: #152037;
      }

      .st2 {
        fill: #fdfcfa;
      }

      .st3 {
        fill: #5e82b3;
      }

      .st4 {
        fill: #9b652a;
      }

      .st5 {
        fill: #d0d2d4;
      }

      .st6 {
        fill: #b09530;
      }

      .st7 {
        fill: #283952;
      }

      .st8 {
        fill: #925b25;
      }

      .st9 {
        fill: #cf9b2f;
      }

      .st10 {
        fill: #eeedec;
      }

      .st11 {
        fill: #925c28;
      }

      .st12 {
        fill: #162342;
      }

      .st13 {
        fill: #e8e9e9;
      }

      .st14 {
        fill: #6e4c1e;
      }

      .st15 {
        fill: #f8f4f1;
      }

      .st16 {
        fill: #fefcfa;
      }

      .st17 {
        fill: #e2e3e3;
      }

      .st18 {
        fill: #9e6828;
      }

      .st19 {
        fill: #13141f;
      }

      .st20 {
        fill: #6a4920;
      }

      .st21 {
        fill: #955e2a;
      }

      .st22 {
        fill: #b59131;
      }

      .st23 {
        fill: #bbcce1;
      }

      .st24 {
        fill: #9f652b;
      }

      .st25 {
        fill: #18264b;
      }

      .st26 {
        fill: url(#linear-gradient2);
      }

      .st27 {
        fill: url(#linear-gradient1);
      }

      .st28 {
        fill: url(#linear-gradient3);
      }

      .st29 {
        fill: #243750;
      }

      .st30 {
        fill: #d69a37;
      }

      .st31 {
        fill: #423219;
      }

      .st32 {
        fill: #925e2f;
      }

      .st33 {
        fill: #1f1c21;
      }

      .st34 {
        fill: #eaeaea;
      }

      .st35 {
        fill: #865b2c;
      }

      .st36 {
        fill: #44638e;
      }

      .st37 {
        fill: #1c293e;
      }

      .st38 {
        fill: #152444;
      }

      .st39 {
        fill: #98642b;
      }

      .st40 {
        fill: #d4dfec;
      }

      .st41 {
        fill: #a8784c;
      }

      .st42 {
        fill: #f7f5f2;
      }

      .st43 {
        fill: #ad8830;
      }

      .st44 {
        fill: #825323;
      }

      .st45 {
        fill: #7c3a1a;
      }

      .st46 {
        fill: #b3832d;
      }

      .st47 {
        fill: #2b4986;
      }

      .st48 {
        fill: #162237;
      }

      .st49 {
        fill: #bca232;
      }

      .st50 {
        fill: #162339;
      }

      .st51 {
        fill: #855122;
      }

      .st52 {
        fill: #a5682a;
      }

      .st53 {
        fill: #241c1c;
      }

      .st54 {
        fill: #6083b4;
      }

      .st55 {
        fill: #754f20;
      }

      .st56 {
        fill: #476896;
      }

      .st57 {
        fill: #201b19;
      }

      .st58 {
        fill: #faf8f4;
      }

      .st59 {
        fill: #2a4581;
      }

      .st60 {
        fill: #714c1e;
      }

      .st61 {
        fill: #243966;
      }

      .st62 {
        fill: #8e5a25;
      }

      .st63 {
        fill: #a2662d;
      }

      .st64 {
        fill: #10111b;
      }

      .st65 {
        fill: #9d722f;
      }

      .st66 {
        fill: #9c5324;
      }

      .st67 {
        fill: #b18142;
      }

      .st68 {
        fill: #395377;
      }

      .st69 {
        fill: url(#linear-gradient);
      }

      .st70 {
        fill: #233968;
      }

      .st71 {
        fill: #231d1c;
      }

      .st72 {
        fill: #1e2c46;
      }

      .st73 {
        fill: #d3b62e;
      }

      .st74 {
        fill: #b1c2d9;
      }

      .st75 {
        fill: #13131f;
      }

      .st76 {
        fill: #aec0d8;
      }

      .st77 {
        fill: #8b5824;
      }

      .st78 {
        fill: #1c161d;
      }

      .st79 {
        fill: #152137;
      }

      .st80 {
        fill: #19263b;
      }

      .st81 {
        fill: #d8dada;
      }

      .st82 {
        fill: #294173;
      }

      .st83 {
        fill: #221d21;
      }

      .st84 {
        fill: #a9822f;
      }

      .st85 {
        fill: #263e72;
      }

      .st86 {
        fill: #243246;
      }

      .st87 {
        fill: #a17f2d;
      }

      .st88 {
        fill: #2c4987;
      }

      .st89 {
        fill: #0a0a12;
      }

      .st90 {
        fill: #f8f5f2;
      }

      .st91 {
        fill: #152140;
      }

      .st92 {
        fill: #e8e7e7;
      }

      .st93 {
        fill: #141627;
      }

      .st94 {
        fill: #111327;
      }

      .st95 {
        fill: #5e3817;
      }

      .st96 {
        fill: #2c4a88;
      }

      .st97 {
        fill: #8b5724;
      }

      .st98 {
        fill: #11121e;
      }

      .st99 {
        fill: #4a331e;
      }

      .st100 {
        fill: #adbfd7;
      }

      .st101 {
        fill: #b28c2f;
      }

      .st102 {
        fill: #905825;
      }

      .st103 {
        fill: #15213a;
      }

      .st104 {
        fill: #99672a;
      }

      .st105 {
        fill: #29447d;
      }

      .st106 {
        fill: #a5713a;
      }

      .st107 {
        fill: #ab882f;
      }

      .st108 {
        fill: #a26f2b;
      }

      .st109 {
        fill: #ac783c;
      }

      .st110 {
        fill: #fdfcfc;
      }

      .st111 {
        fill: #33549b;
      }

      .st112 {
        fill: #5378ac;
      }

      .st113 {
        fill: #121c31;
      }

      .st114 {
        fill: #8e6127;
      }

      .st115 {
        fill: #16100f;
      }

      .st116 {
        fill: #a8813a;
      }

      .st117 {
        fill: #2b211f;
      }

      .st118 {
        fill: #2c4b8a;
      }

      .st119 {
        fill: #975726;
      }

      .st120 {
        fill: #1f2e44;
      }

      .st121 {
        fill: #141e2e;
      }

      .st122 {
        fill: #294276;
      }

      .st123 {
        fill: #f5f4f4;
      }

      .st124 {
        fill: #152033;
      }

      .st125 {
        fill: #ad8d2f;
      }

      .st126 {
        fill: #231c1d;
      }

      .st127 {
        fill: #482d14;
      }

      .st128 {
        fill: #f4efe8;
      }

      .st129 {
        fill: #253d70;
      }

      .st130 {
        fill: #663a16;
      }

      .st131 {
        fill: #b5822f;
      }

      .st132 {
        fill: #f2f1f1;
      }

      .st133 {
        fill: #875122;
      }

      .st134 {
        fill: #26408a;
      }

      .st135 {
        fill: #415e88;
      }

      .st136 {
        fill: #0d0d13;
      }

      .st137 {
        fill: #4e3114;
      }

      .st138 {
        fill: #e6e5e4;
      }

      .st139 {
        fill: #b6942f;
      }

      .st140 {
        fill: #9c692a;
      }

      .st141 {
        fill: #9a6028;
      }

      .st142 {
        fill: #7898c4;
      }

      .st143 {
        fill: #95742d;
      }

      .st144 {
        fill: #543715;
      }

      .st145 {
        fill: #9b6933;
      }

      .st146 {
        fill: #b79a30;
      }

      .st147 {
        fill: #1a283e;
      }

      .st148 {
        fill: #2d2621;
      }

      .st149 {
        fill: #4b3a27;
      }

      .st150 {
        fill: #161621;
      }

      .st151 {
        fill: #925724;
      }

      .st152 {
        fill: #553212;
      }

      .st153 {
        fill: #453421;
      }

      .st154 {
        fill: #20315d;
      }

      .st155 {
        fill: #2c2a26;
      }

      .st156 {
        fill: #4b3a18;
      }

      .st157 {
        fill: #b39238;
      }

      .st158 {
        fill: #20345e;
      }

      .st159 {
        fill: #a5842e;
      }

      .st160 {
        fill: #11131c;
      }

      .st161 {
        fill: #bd7c2d;
      }

      .st162 {
        fill: #121c30;
      }

      .st163 {
        fill: #131d30;
      }

      .st164 {
        fill: #111322;
      }

      .st165 {
        fill: #8d5d27;
      }

      .st166 {
        fill: #412710;
      }

      .st167 {
        fill: #0b0e1a;
      }

      .st168 {
        fill: #2a4682;
      }

      .st169 {
        fill: #233869;
      }

      .st170 {
        fill: #4b2f11;
      }

      .st171 {
        fill: #6a4019;
      }

      .st172 {
        fill: #101529;
      }

      .st173 {
        fill: #c9cdcf;
      }

      .st174 {
        fill: #33559d;
      }

      .st175 {
        fill: #efeeed;
      }

      .st176 {
        fill: #f6f4f2;
      }

      .st177 {
        fill: #d6d8d9;
      }

      .st178 {
        fill: #916e2a;
      }

      .st179 {
        fill: #603815;
      }

      .st180 {
        fill: #8c6528;
      }

      .st181 {
        fill: #192539;
      }

      .st182 {
        fill: #f2eeea;
      }

      .st183 {
        fill: #233868;
      }

      .st184 {
        fill: #f5f3f0;
      }

      .st185 {
        fill: #1e1a28;
      }

      .st186 {
        fill: #8c5926;
      }

      .st187 {
        fill: #ad872f;
      }

      .st188 {
        fill: #2c4a87;
      }

      .st189 {
        fill: #c5a32d;
      }

      .st190 {
        fill: #af9230;
      }

      .st191 {
        fill: #f8f6f5;
      }

      .st192 {
        fill: #24396a;
      }

      .st193 {
        fill: #9e6637;
      }

      .st194 {
        fill: #11131f;
      }

      .st195 {
        fill: #bb9c2f;
      }

      .st196 {
        fill: #fdfaf6;
      }

      .st197 {
        fill: #bea740;
      }

      .st198 {
        fill: #f0efef;
      }

      .st199 {
        fill: #6b8cba;
      }

      .st200 {
        fill: #fdfcfb;
      }
    </style>
    <linearGradient id="linear-gradient" x1="181.74" y1="-107.78" x2="99.12" y2="-92.63" gradientTransform="translate(74.72 253.53) scale(1.14)" gradientUnits="userSpaceOnUse">
      <stop offset="0" stop-color="#3b5faa"/>
      <stop offset=".68" stop-color="#2e4e8f"/>
      <stop offset="1" stop-color="#052a66"/>
    </linearGradient>
    <linearGradient id="linear-gradient1" x1="261.41" y1="-170.26" x2="264.57" y2="127.72" gradientTransform="translate(74.72 253.53) scale(1.14)" gradientUnits="userSpaceOnUse">
      <stop offset="0" stop-color="#2b4884"/>
      <stop offset=".15" stop-color="#395ca7"/>
      <stop offset=".28" stop-color="#34579f"/>
      <stop offset=".51" stop-color="#203460"/>
      <stop offset=".78" stop-color="#253d6f"/>
      <stop offset="1" stop-color="#152444"/>
    </linearGradient>
    <linearGradient id="linear-gradient2" x1="291.96" y1="58.02" x2="294.25" y2="118.98" gradientTransform="translate(74.72 253.53) scale(1.14)" gradientUnits="userSpaceOnUse">
      <stop offset="0" stop-color="#86a1c6"/>
      <stop offset="1" stop-color="#587eb2"/>
    </linearGradient>
    <linearGradient id="linear-gradient3" x1="257.56" y1="-205.27" x2="263.7" y2="-109.47" gradientTransform="translate(74.72 253.53) scale(1.14)" gradientUnits="userSpaceOnUse">
      <stop offset="0" stop-color="#7a98c0"/>
      <stop offset=".45" stop-color="#a0b5d3"/>
      <stop offset="1" stop-color="#aabdd6"/>
    </linearGradient>
  </defs>
  <g>
    <path class="st69" d="M218.79,109.71c1.08,1.27,2.98,2.03,5.69,2.28,4.66,1.91-1.06,3.36.01,6.82l3.4-.57c-2.47,2.24-4.95,5.86-6.01,8.97-.85,2.49.33,2.66.33,2.98,2.68.11,1.94,2.56,1.14,4.55.38,2.47-.98,4.71-1.14,6.83,3.01,1.08,3.02,2.32,0,3.41,18.18,8.44,34,.42,44.37-12.51-1.95-5.31,3.87-8.82,9.52-8.84,3.37-5.26,6.26-6.86,8.68-4.81.26,2.91-.06,6.12,0,9.1l1.51.91c-.63,3.13-.37,5.48.77,7.05.07.1,1.11,2.15,1.14,2.28,2.98.79,2.96,1.46,0,2.28,3.46.67,3.4,6.02,0,6.83,4.28,1.28,2.3,5.98-1.14,7.96-2.67,3.81-5.44,7.49-8.31,11.05l-11.94-10.73c-8.57-3.13-26.23-2.62-33.97,1.78-5.95-2.59-12.52-2.92-19.72-.96-1.99,2.34-5.22,3.39-9.69,3.16-3.89,1.53-7.11,1.62-9.65.25-.33,1.05-.71,1.04-1.14,0-1.51,1.74-3.31,3.39-5.69,3.41-6.71-1.46-10.82-.5-12.34,2.9l-2.45.51c-.32.99-.7.98-1.14,0,.21-1.8-.68-5.13,1.06-6.34s11.74-.25,13.52-1.83c.99-.88,6.73-20.07,9.31-24.82l2.09-.7c5.3-8.41,10.94-16.56,16.92-24.44l2.6.11,2.28,1.14Z"/>
    <path class="st112" d="M515.7,357.71c-29.27,30.06-65.46,49.65-106.93,56.88-5.42-1.22-15.11-5.35-6.83-10.24l1.7-1.66c13.25-2.36,26.33-5.22,39.25-8.58,25.59-11.37,49.89-25.82,70.46-43.97,5.15.5,4.85,4.01,2.34,7.56Z"/>
    <path class="st68" d="M234.71,349.75c25.77,21.1,53.27,38.84,85.32,48.92,1.25,1.63.85,2.37-.76,3.3,2.54,2.47,6.51,8.05.76,8.07-36.95-10.63-66.58-29.5-92.14-58.02-4.51-8.4,2.95-10.92,6.83-2.28Z"/>
    <path class="st129" d="M545.27,126.78c4.19,1.71,7.6,5.5,10.24,11.38,4.68,5.01,6.02,15.41,9.1,21.61,1.25,1.66.67,2.23-1.14,1.14-2.18,10.71-4.13,5.11-4.55-2.28-4.9.08-9.86-.05-14.9-.39-.59,2.26-1.31,1.45-2.16-.75-1.32,2.18-2.84,4.08-4.55,5.69-.36,3.02-1.41,2.89-2.28,0-1.46-1.23-1.44-3.99-1.12-5.46l-15.02-.84.21-1.66c3.49-.63,13.05.7,15.44-1.03,3.31-2.4,5.48-18.68,7.12-23.61.72-2.16.45-3.94,3.6-3.8Z"/>
    <path class="st56" d="M401.94,404.35c2.31.7-2.17,3.04-1.13,4.53.28.41,7.68,2.78,7.96,5.71-16.03,2.79-28.63,3.6-44.95,3.43-1.92-.02-5.06.73-6.24-1.16l2.24-2.42c-5.32-4.04-7.04-8.45,1.17-8.96,12.97-.2,25.96-.96,38.97-2.28l1.98,1.14Z"/>
    <path class="st135" d="M358.71,405.49c.82-.41,1.54-.67,2.28,0-9.15,3.39,2.66,6.7,3.41,11.36-2.27.05-4.56-.02-6.83.01-13.05.2-25.17-3.27-37.54-6.83,2.85-2.88-3.06-5.71-3.44-8.52s2.28-1.28,3.44-2.86c12.06,2.52,24.28,4.34,36.64,5.46l2.04,1.37Z"/>
    <path class="st147" d="M198.31,127.92l15.95-23.88c2.41-2.1,2.78,3.16,2.25,4.54-.33.87-7.42,8.85-8.89,11.02-3.17,4.68-6.5,10.88-9.95,15.07-2.06,2.5-1.42.11-2.77-1.07,1.06-1.94,1.59-4.22,3.41-5.69Z"/>
    <path class="st105" d="M475.88,195.03c-1.31,10.14-5.64,7.36-9.1,0-5.77-7.07-2.14-3.86-.22-8.8.51-1.32-.03-2.9.22-3.71-.98-.31-.97-.69,0-1.14.03-.08,1.01-1.06,1.14-1.14,10.69-7.77,10.54,8.38,7.96,14.79Z"/>
    <path class="st158" d="M477.02,238.26c-2.11-1.85-1.09-20.55-1.14-25.03-3.71-5.95-2.59-11.98,0-18.2-.09-6.15,2.5-21.31-7.96-14.79,0-.76,0-1.52,0-2.28,3.5.41,9.54-1.78,10.24,2.84l-1.14,57.45Z"/>
    <path class="st96" d="M266.56,132.47c-.04.11,1.03,1.12.52,2.27-.83,1.87-17.34,14.06-19.53,14.56-8.02,1.83-17.19-1.91-25.37-.9-.04-1.13.04-2.28,0-3.42,5.95,1.1,19.9,2.47,25.35.9,4.52-1.3,13.39-11.63,19.01-13.41Z"/>
    <g>
      <path class="st27" d="M461.09,65.35c2.42-.73,2.8.41,1.14,3.41.92,3.96,1.68,7.75,2.28,11.38.31.49.57.98.64,1.51.15,1.16-8.51,7.49-9.78,4.33-2.1-.67-6.68-2.1-7.92-.15.71,3.05-.06,3.38-2.28,1.14-1.1.88-2.24,1.64-3.41,2.28-.99,3.25,2.94,14.83,3.9,5.35l2.92-.8c3.08.73,2.79,2,0,3.41,2.3,2.67,4.32,2.39,5.97-.67,2.36,3.16,4.63,3.66,6.81,1.5,4.52,1.03,7.85,0,9.97-3.11-3.05-.28-3.69-4.17-1.14-5.69-3.35-5.87-3.03-9.85-1.14-15.93-.97-3.08.95-4.36,3.41-2.28.35-1.93,1.96-7.44,3.19-7.06,4.92,1.52,31.05,19.03,36.76,23.15.85.62,1.5,1.29,2.14,2.11.76-.04,1.5-.04,2.21.12,4.23.96,25,28.09,28.45,33.57l.05,3.85c-2.1,9.82-4.96,19.31-8.59,28.49-1.53,1.21-13.99.39-17.58-.05-.11,2.66-2.39,2.63-4.55,2.28-.81,1.04-1.19.66-1.14-1.14-1.06,2.01-1.97,2.51-2.18.27l-10.33-.27c-5.36-.12-10.29-.87-14.79-2.28l-9.1-1.14c-4.07-1.33-8.46-1.36-13.17-.09-4.67-2.48-9.38-3.59-14.13-3.32-6.86.96-16.33,3.59-18.2,11.38.8,1.99-.88,7.14-3.41,6.83-7.27,18.04,3,32.46,17.06,43.23,4.51-2.33,8.38,4.31,4.55,7.96-.06.5-.17.95-.45,1.17-3.3,2.59-17.51-11.92-18.7-14.27l-1.33.59c-.99,6.2-2.37,18.33.73,23.75,5.85,10.23,29.14,10.97,35.68.14l-.71-1.48c4.42-5.91,5.65-12.97,4.12-20.13l-2.71-1.34c-3.48-8.49-9.18-15.8-17.12-21.93l.49-2.89c-1.85-2.16-2.6-4.06-2.28-5.69-2.3-5.37,1.79-5.48,5.47-2.49l9.15,8.59c1.96-2.89,2.76-3.52,4.71-.4,4.15.76,1.98,5.65-.39,7.96,1.51,1.75,1.64,3.27.39,4.55,4.32,4.86,5.58,9.38,7.08,15.59l2.02,2.61c.49,8.04.87,16.38,1.14,25.03l1.67-1.82c8.45,1.9,14.57,2.13,22.22-1.59-.97-.25-.93-.64,0-1.14-.29-17.9-.29-35.72,0-53.47,6.93-1.81,8.58-2.16,9.1,5.69l2.22,1.54-.4,22.67c-3.93,27.51,16.45,39.93,39.13,26.98-1.93.17-1.93-.59,0-2.28l-.62-2.48c3.57-5.17,5.27-11.18,5.11-18.03l2.34-1.1c.32-.99.7-.98,1.14,0l2.13,2.04c-1.3,8.75-1.66,17.5-.82,26.26,6.5-.38,9.85,1.18,10.07,4.68-.74,5.07-1.14,10.95-2.28,15.93-2.17,3.11-3.64,6.72-4.42,10.83-15.03,45.49-46.54,82.03-89.37,105.21h-2.9c-.58.12-1.14.18-1.65.03-3.71-1.07.48-13.37,1.65-15.96l-2.13-3.66.26-20.54c1.47-5.02.66-9-2.42-11.96,3.68-12.88,1.55-10.51-6.4,7.11-3.36,8.02-15.12,8.08-14.33-.53l-1.42-2.33c2-4.47,4.37-8.62,7.1-12.46-1.65-.41-2.41-1.16-2.28-2.28l-10.66,1.14c-2.4-1.95-4.28-1.51-5.65,1.33-7.13-1.13-12.07,1.12-13.04,8.83-2.03,1.87-11.21-1.19-12.15-4.51-3.37-2.27-10.23,3.07-10.7,7l-2.89.81c-1.15,3.98-3.67,4.14-7.56.47.85,6.6-8.97,9.1-14.41,9.44l-14.99-.52c-6.1,1.32-10.87,3.68-12.09,9.88,2.41,3.67,2.85,5.06-1.02,7.63l3.15,9.28c1.24,4.24,1.02,10.31-3.79,11.77l2.07,2.22c-.4,6.75,4,8.25,13.21,4.52l11.21,2.36c10.76-3.28,32.49-7.87,38.21,4.75,5.63.53,9.93,4.93,3.56,7.77-.69.9-1.42,1.64-2.27,1.84-13.15,3.07-28.78,3.69-42.1,2.71-48.79.43-97.31-21.38-131.96-55.74-2.02-.09-5.38-3.54-5.69-5.69-3.68-2.46-6.33-5.5-7.96-9.1-.86-.14-1.7-.32-2.49-.64-4.75-1.94-16.82-22.25-20.18-28.17-7.62-13.44-12.53-27.05-16.32-41.81l-1.96-1.04c-1.27-5.52-3.12-11.38-3.41-17.06,1.54-.9,3.43-1.83,5.65-2.77,4.34-14.75,7.44-29.88,9.32-45.36l1.41.91c-.34,13.58-.11,27.04.68,40.4.55-3.1,2.27-2.89,3.41,0,1.73.34,3.1.96,4.13,1.89,10.79.69,21.78-.24,32.98-2.79,6.98,1.07,13.65.97,20-.31,1.14-2.78,2.58-4.27,4.32-4.48,2.14-.63,2.6.5,1.14,2.28,2.34,2.44,17.61,3.48,19.25,1.54.47-.55.76-6.29-.03-7.84.48-1.02,1.31-1.13,2.4-.53,1.05-.29,1.43.09,1.14,1.14,7.04,9.87,16.92,13.02,28.44,9.1.06-3.32,5.04-5.16,7.96-4.55,2.52-1.46,5.92-.86,6.09,2.39,9.57.27,16.42.37,16.74-10.89,7.39-4.76,10.29-.28,10.88,7.02,5.07,3.65,11.92,4.37,20.55,2.16,2.14,1.75,4.91,2.66,8.31,2.74l1.33-2.17,20.11-.11c.16-1.34.99-1.84,2.45-2.26l-2.16-1.38c3.29-2.69,2.06-9,.57-13.21-.22-.61.6-1.12,1.59-1.34-.99-.38-.99-.76,0-1.14l-13.19-1.47c-1-1.05-1.28-24.74.68-26.97l-1.14-27.3c-.98-1.17-.75-4.22,0-5.69-6.3-1.19-13.17-2.09-19.34,0,.81,2.15,1.06,4.86,0,6.83l-1.66,61.29c-.02.76-.79,1.13-1.75,1.27-1.51-1.81-2.22-4.69-1.14-6.83-1.55-14.29-4.58-28.7-9.1-43.23-.7-.01-1.26-.07-1.33-.27-1.76-5.68-3.44-13.31-4.71-19.19-.06-.3.11-.65.35-1.01-5.09.96-10.02.96-14.79,0-.32.99-.7.98-1.14,0-.94.1-1.32-.66-1.14-2.28-5.96-1.19,2.42-7.08,5.46-9.01,3.73-2.36,12.68-7.53,13.88-1.23,1.58,2.88,3.97,2.9,7.17.07,5.38.23,9.63-1.25,12.76-4.44,6.08,2.27,9.95,1.49,11.62-2.35l12.33-7.76c1.16-3.04,5.76-12.41,6.17-6,.19,2.64.95,4.91,2.28,6.83,3.97.48,1.64,5.45-2.44,4.35.45,2.6-.26,4.19-2.11,4.75,1.68,2.01,2.5,4.34,2.46,6.98.21-3.01,1.29-4.96,3.22-5.84-2.94-1.36-.91-5.66.58-7.62l1.7-9.44c-1.25-.75-1.63-2.64-1.14-5.69l-1.06-1.23c1.57-2.94,3.06-5.95,4.48-9.01-2.36-1.22-2.74-3.87-1.14-7.96-2.09-1.07-6.43-3.64-5.04-6.47-6.5.71-6.25-7.75.49-8.32,2.81-2.24,4.96-4.64,6.47-7.21-1.96-6.44,4.97-5.99,6.04-.76,1.49,2.69,3.58,4.4,6.27,5.13l.55,1.7c1.69-1.46,2.31-.79,1.14,1.14,1.55.99,1.87,2.7.98,5.13,5.27-.58,6.4-1.81,3.57-6.26,1.67-3.27,1.11-6.41-1.67-9.43l.53-3.08c.32-.99.7-.98,1.14,0,.42-2.89,2.45-4.79,5.35-3.9,5.83,5.01,8,.54,10.57-5.2-3.17-.52-3-2.33,0-3.41.6-1.54,2.19-.99,3.56-.41,1.93.83,11.17,8.14,7.81,10.65Z"/>
      <g>
        <g>
          <path class="st118" d="M411.04,114.27c1.64,2.77-1.22,6.87-4.55,5.69-4.73-3.25-3.39,6.15-3.62,6.56-1.25,2.25-10.69,6.93-13.37,8.87-1.17.85-1.43,3.12-3.1,3.72-3.67,1.32-8.45-1.19-10-.8-1.39.35-1.26,2.99-2.55,3.3-5.71,1.4-11.91-1.4-15.72,6.78-2.75,1.43-1.62-6.72-1.69-7.96,6.23,1.71,1.15.26,5.22-3.3s8.93-1.41,12.28-2.54c1.65-.56,1.49-3.21,2.5-3.3.85-.08,3.57,1.21,5.57,1.27,6.89.19,4.67-2.1,7.1-3.54,2.82-1.67,12.55-5.62,13.62-8.25,3.74-9.18,2.91-5.21,8.18-11.73,1.42-1.75,1.39-4.13,3.54-5.01-.27,3.21-1.86,7.37-3.41,10.24Z"/>
          <path class="st194" d="M465.64,230.3c-3.59,6.32-6.37,9.31-14.35,10.11-8.6.86-23.21-3.15-24.36-12.93-.43-3.64-.57-14.89.04-18.26.42-2.33,1.83-2.18,2.26-2.81-.02,3.41,1.07,7.7,1.14,10.81.16,6.88-4.31,8.23,4.17,14.02,8.28,5.66,23.27,5.88,31.09-.95Z"/>
          <path class="st61" d="M450.85,52.84c1.72-3.83,5.72-1.21,7.39,1.56,4.64-5.65,13.44,2.31,16.84,6.21,13.53,7.61,26.35,16.58,38.33,26.35.48.49.66,1.78,1.14,2.28l-39.26-23.88-2.83,5.68c-3.62.3-3.62-1.49,0-5.36-1.08.96-1.08.48,0-1.46-1.85,1.58-4.28,1.6-6.38.45-2.19,2.19-3.85,2.42-5,.69-2.67-4.2-5.88-9.49-11.38-10.24-1.44-.59-.32-2.06,1.14-2.28Z"/>
          <path class="st74" d="M469.06,73.31c3.74,2.98.02,5.25.42,7.98.31,2.16,2.81,5.23,2.95,6.29.08.58-2.19,1.06-2.23,1.67-2.46,2.15-4.98-.15-7.37.03-1.54.12-2.47,1.86-4.05,1.71-3.17-.29-1.69-3.23-2.91-4.12-1.62-1.18-6.28-1.19-8.43-1.04-3.04-1.23,2.18-1.99,2.65-1.91,1.51.26,7.31,2.25,7.59,1.91s-.44-2.82.08-3.28c.89-.8,3.31,1.27,6.75-2.41-.1-2.82-.47-4.39-1.95-7.03.37-2.17,7.21-4.97,6.5.2Z"/>
          <path class="st103" d="M409.9,137.02c-1.75,5.43-5.21,4.42-5.69-1.14-.25-2.75-.23-5.23-1.13-7.96.59-.59,4.76,1.88,5.68,1.13.3-.24-.23-1.77,0-2.27-2.78-2.12.06-6.96,3.41-6.83,2.83,4.78-1,12.11-2.28,17.06Z"/>
          <path class="st82" d="M424.69,67.62c-.5,2.47-1.63,4.36-3.41,5.69-1.86-.82-3.83-1.41-5.68-2.27,1.06,5.51-.45,10.72-6.84,10.24-1.45-.11-2.66-2.26-3.41-3.41-.94-2.92,1.33-4.41,6.81-4.48-1.22-3.86-.46-5.78,2.29-5.76v-1.14c1.45-1.74,4.1-2.12,7.96-1.14.04.57,1.72,1.98,2.28,2.28Z"/>
          <path class="st80" d="M472.47,71.04c-.11.18-3.21,2.23-3.41,2.28-.26.06-4.39-2.35-4.53.56-.07,1.48,4.02,1.94-.02,6.26-1.92-2.99-6.84-10.06-2.28-11.38,1.48.38,1.5-.57.06-2.86,3.31-.56,6.7-1.12,10.18-1.69,2.59,1.1.18,3.31-.53,5.16-.23.61.57,1.59.53,1.66Z"/>
          <path class="st70" d="M433.79,67.62c-1.04-3.14,1.85-7.28,4.96-6.65,3.74.77,4.34,7.74,10.96-2.45-.46,2.59-2.35,9.46-5.23,10.16-2.38.58-6.11-6.07-10.7-1.06Z"/>
          <path class="st79" d="M433.79,80.14c10.71,3.96-2.72,10.96-5.69,7.96-.53-.54.19-5.67,1.14-6.82,1.69-2.05,3.54-.7,4.55-1.14Z"/>
          <path class="st76" d="M411.04,114.27c3.75-.9,2.07,2.9,1.14,5.69-.64,1.9-2.48,4.86-3.41,6.83-5.94,1.45-4.72-2.85-2.28-6.83,1.08-1.75,3.63-3.98,4.55-5.69Z"/>
          <path class="st134" d="M449.72,149.53c5.53.41,14.38,6.46,15.37,6.5.8.03,2.15-1.88,2.83-1.95l-.56,5.68c-7.57-6.23-17.87-12.04-27.55-7.05-2.43,1.25-2.48,2.51-3.74,3.64-1.97,1.75-2.83,2.15-4.55,4.55-2.24-.57-.11-3.63.61-4.52,3.59-4.4,11.91-7.29,17.59-6.86Z"/>
          <path class="st122" d="M421.28,73.31c2.17-.85,4.82-.85,7.96,0,.38,2.71.81,3.7-1.14,6.83-5.51-1.44-6.57,0-6.83-6.83Z"/>
          <path class="st23" d="M445.17,86.96l2.28,5.69c-1.26.26-3.73,2.46-4.25-.57-.24-1.41,2.77-3.38-1.44-2.84.17-.23-.37-1.53.2-2.07.76-.71,2.42,0,3.21-.21Z"/>
          <g>
            <path class="st75" d="M194.9,191.62c2.24,15.52,2.23,31.12,0,46.64-1.67-.63-1.03-1.48-1.19-2.78-1.18-9.85.48-22.67.05-33.07-.06-1.38.86-4.23-1.13-3.96-.08,2.01.24,4.13-.13,6.13-1.3,6.98-4.9,33.4-6.96,37.41-1.49,2.89-4.67,3.22-7.71,3.1-.04-.75-.02-1.53,0-2.28,2.16.23,3.83-.55,5.22-2.18,4.17-4.9,6.08-33.38,7.55-41.36l4.29-7.66Z"/>
            <path class="st19" d="M514.56,157.49c1.42,15.02,1.7,30.11.83,45.26-1.06,10.66.94,19.49,3.72,28.68,2.49-1.62,3.37-.38,2.28,2.28,2.67.94,5.94,2.61,7.96,4.55l1.45-.94c6.78,1.38,13.5,1.32,20.16-.2-4.15,10.37-29.63,8.63-36.41-.56-7.41-10.05-4.04-37.49-4.54-50.63.33-6.54-2.7-8.44-9.1-5.69-1.55,16.74,2.09,37.19,0,53.47l-1.14-60.3c18.15,2.32,10.15-4.82,13.66-17.06.2.11,1.03.95,1.14,1.14Z"/>
            <path class="st75" d="M256.33,216.65c3.35.68,3.74,2.35,1.14,4.55,1.65,4.07,2.4,7.86,2.28,11.38-1.4,7.22-3.73,7.46-10.82,7.94-4.94.33-11.64-2.12-12.27-2.03-1.55.22-4.82,2.62-8.33,3.06-8.16,1.03-18.57.46-26.95,1.04l-3.07-4.32c9.05.14,20.22-1.94,29.58-2.28,1.73-3.73,2.87-7.9,3.41-12.51.36-3.02,1.41-2.89,2.28,0,.29,3.92.67,8.09,1.14,12.51.19-2.11.84-3.05,1.35-1.12l13.02-.39c.75-.9,3.03-.45,3.83.37.39-6.03.77-12.1,1.14-18.2-3-2.23.51-4.42,2.28,0Z"/>
            <path class="st83" d="M374.64,232.57c2.18,1.28,4.24,2.17,6.85,2.17l1.11,2.38c-7.27-1.9-20.35,1.89-26.55-.19-4.54-1.52-.7-11.29-8.15-11.29s-3.28,8.65-8.22,11.23c-2.43,1.27-11.91,2.1-14.4,1.26-2.61-.88-.28-5.81-5.25-4.41-1.58-1.55-.9-2.17,1.14-1.14,2.84-.5,18.66.69,19.33-.01.39-.41.76-10.95,1.15-11.36.34-.35,9.23-.92,9.71-.84,2.07.36,1.36,2.98,1.66,4.24,1.09,1.35,1.62,3.26,1.59,5.75-.29,1.3,11.94,1.93,14.52,1.02.95-1.94,1.27-4.58.96-7.9,1.01-1.17,1.63-2.45,1.84-3.85l1.57-58.72c.05-2.27-.11-4.56,0-6.83,1.88,1.18,1.14,4.32,1.16,6.24.25,24.08-.23,48.19-.02,72.25Z"/>
            <path class="st164" d="M449.72,168.87c4.02-1.34,9.89,4.42,12.51,7.96,1.12-1.97,2.79-1.03,2.28,1.14.38.38.21,3.19,2.28,3.41-.11.34.11.79,0,1.14-3.66-.95-1.84,3.02-2.28,3.41-2.47,2.17-10.9-8.79-13.96-10.49-2.14-1.19-3.53-1.93-3.1,1.39-5.9-1.24-1.08-14.07,2.28-7.96Z"/>
            <path class="st167" d="M406.49,232.57c-.18,1.76.4,3.65-1.87,4.39s-18.85.54-22.02.16c-2.6-.31-8.69-1.4-7.96-4.55h31.85Z"/>
            <path class="st158" d="M373.5,160.91c-.45,21.2.34,42.5,0,63.7l-3.41-1.13,3.41-62.57Z"/>
            <path class="st158" d="M392.84,159.77l1.14,27.3c.05,5.31-1.05,20.58.19,24.27,1.53,4.56,9.42,1.66,12.33,4.17-4.33.99-10.35.94-14.79,0-.41-20.47-.41-40.95,0-61.43h1.14c.34,1.34-.07,4,0,5.69Z"/>
            <path class="st169" d="M466.78,195.03c3.75,4.6,6.28,6.97,9.1,0,.09,6.05-.07,12.15,0,18.2-3.11.24-3.5-.02-4.5-2.89-1.61-4.6-2.16-10.62-4.6-15.31Z"/>
            <path class="st158" d="M368.95,216.65c-2.7-14.41-7.56-28.55-9.1-43.23,3.19,10.9,7.75,22.62,9.74,33.74.36,1.99.92,7.91-.64,9.49Z"/>
            <path class="st85" d="M393.97,187.07c-2.36-8.51-.78-18.4-1.14-27.3,2.16,8.47,1.05,18.44,1.14,27.3Z"/>
            <path class="st150" d="M288.18,232.57c.8.64,1.25,2.13,2.99,3.23,7.03,4.44,13.05,3.95,20.9,2.46-11.27,4.51-22.59,2.19-28.44-9.1,1.48,1.16,3.08,2.24,4.55,3.41Z"/>
            <path class="st158" d="M510.01,185.93l-.92-.78c.65-7.23-2.3-4.57-8.18-4.9,8.89-3.67,8.76-3.08,9.1,5.69Z"/>
          </g>
          <path class="st88" d="M477.02,152.94c2.83-.01,7.23-.86,9.1,1.14-5.21-.28-11.89-.36-17.06,0,1.54-1.97,5.48-1.13,7.96-1.14Z"/>
        </g>
        <g>
          <path class="st199" d="M568.03,262.15c-7.84,34.32-27.87,70.44-52.33,95.56.3-1.72.14-6.02-2.71-5.59-1.28.2-15.98,12.97-19.03,15.13-15.47,10.99-33.08,20.68-51.07,26.86-1.26.19-1.64.14-1.14-1.14.58-1.26,1.28-2.57,2.48-3.35,4.68-3.01,17.73-9.64,22.98-11.76l4.11.32c29.56-16.26,52.06-35.56,70.31-64.5,6.69-10.61,22.22-40.17,23.23-51.24.27-2.98,1.32.09,3.16-.3Z"/>
          <path class="st36" d="M181.25,262.15c2.09-1.09,2.34-2.61,3.52.43,2.69,6.91,4.26,15.08,7.3,22.31,7.16,17.04,18.32,34.75,30.13,48.93-.18,2.01,4.55,6.41,7.96,9.1,2.7,1.03,3.97,4.1,5.69,5.69,1.51,1.6.87,2.18-1.14,1.14-1.84-1.54-3.72-3.17-5.68-4.55l-1.15,6.83c-23.44-26.14-38.75-55.49-46.64-89.87Z"/>
          <path class="st42" d="M461.09,268.98c1.81-.75,3.35.06,4.64,2.45-.42-6-.26-12.1,1.58-17.87l1.75-.5c2.14.32,5.71-1,6.67,1.86-1.32,10.55,2.32,28.36.16,37.95-5.74,5.39-10.49-.45-14.04-5.31l-10.94-15.01c.71,3,.13,4.81-1.74,5.43l-.58,13.75c-2.42,1.88-5.3,3.55-6.83,0-2-1.71-2.79-4.43-2.38-8.18l1.24-31.64c9.04-1.67,15.63,10.54,20.48,17.06Z"/>
          <path class="st15" d="M285.9,251.91c1.39-.57,9.35-1.27,9.65-.41.57,1.6.34,21.03-.06,23.99-.56,4.14-1.48,8.2-3.91,11.68.56,7.55-17.33,11.57-20.48,3.41-.19-2.24.13-4.58,0-6.82,21.97,7.24,13-19.05,14.78-31.86Z"/>
          <path class="st3" d="M367.81,404.35c-2.77.38-5.8.76-9.1,1.14-12.81-.75-26.35-3.41-38.68-6.83-35.34-9.78-57.94-25.98-85.32-48.92l1.14-1.14c29.53,27.29,67.21,47.85,107.64,53.33,7.95,1.08,16.62.5,24.32,2.41Z"/>
          <path class="st148" d="M271.12,290.59c6.88,4.62,14.86,1.82,20.48-3.41,4.81-11.32,5.8-23.25,2.96-35.78l1.59-.62c5.2,4.66,4.08,26.76,2.2,33.49-3.54,12.68-23.32,18.37-27.81,7.43-.33-.81.58-1.04.58-1.1Z"/>
          <path class="st71" d="M448.58,291.73c-.6-8.58,1.33-17.97-1.14-26.15,2.87-.8,2.56,2.01,4.27,4.23,3.72,4.86,13.12,18.89,16.79,21.91,2.29,1.88,4.79,1.12,7.38,1.15-.8,3.52-5.6,5.59-9.08,3.97-4.07-1.9-13.08-15.5-15.96-19.88-1.86-.31-1.07,1.53-1.12,2.82-.21,4.57.86,7.78-1.14,11.96Z"/>
          <path class="st158" d="M331.41,256.46c-.27-1.32.08-2.84-1.12-4l2.24-.55c2.15,11.62,11.69,24.38,14.27,35.32.74,3.14.36,8.31-3.45,9.05-10.85,2.1-9.5-6.87-14.8-7.94-3.62-.73-9.12-.45-11.93,2.25.37-.46-.26-2.58,1.84-3.25,1.37-.44,11.88-.56,13.33-.21,1.52.37,1.88,8.48,9.28,8.13,3.54-.17,4.18-1.27,3.99-4.66-.59-.03-1.07-.12-1.21-.39-1.99-3.92-13.56-30.68-13.65-32.69-.01-.33.52-.69,1.21-1.05Z"/>
          <path class="st155" d="M441.75,291.73c2.08.32,4.65-.22,6.83,0-2.93,6.16-11.23,7.02-12.45-.63-.91-5.71-.9-27.13-.12-32.98.2-1.5,2.34-7.24,3.46-7.34.91,11.46.91,23.11-.01,34.97-.03,2.63.42,4.47,2.29,5.98Z"/>
          <path class="st142" d="M441.75,392.97l1.14,1.14c-12.74,4.38-27.6,8.5-40.95,10.24-12.68,1.65-28.11,1.74-40.95,1.14-.76-.04-1.52.04-2.28,0,1.89-2.02,6.25-1.12,9.1-1.14,15.5-.11,29.23-1.79,44.37-4.55,9.81-1.79,20.05-3.54,29.58-6.83Z"/>
          <path class="st71" d="M469.06,253.05c-2.61,7.69-.43,16.96-1.15,25.02-2.76-2.27-4.67-6.21-6.81-9.09h1.14c-.18-5.75.96-10.68,3.41-14.79.22-.24-.33-1.95.02-2.24,1.16-.97,3.07,1.06,3.4,1.11Z"/>
          <path class="st188" d="M471.33,94.93c-.36,7.61-5.77,4.27-9.49,4.88-1.29.21-2.65,2.55-4.68,1.95-1.65-.49-.99-3.7-2.88-3.41-2.87,7.22-4.98,5.75-5.7-1.15,3.2,1.86,6.58.48,5.7-3.41,1.85-.1,2.2,4.42,3.96,4.37.48-.01,1.57-1.69,2.59-1.88,3.07-.59,6.67,1.36,10.51-1.35Z"/>
          <path class="st31" d="M296.14,250.78c-1.54,12.23,5.58,26.97-4.55,36.4,3.59-10.82,2.88-23.74,3.42-35.27h-9.11c1.63-1.48,9.25-2.02,10.24-1.13Z"/>
          <path class="st154" d="M428.1,172.28c-6.09,18.41,6.84,26.94,17.06,38.68-14.15-8.48-23.71-23.26-19.1-40.2.5-1.82,1.78-2.41,2.04-3.03,0,1.52,0,3.03,0,4.55Z"/>
          <path class="st111" d="M477.02,152.94c-2.57.18-5.23.56-7.96,1.14-.38.03-.76-.04-1.14,0l-1.34,3.31c-5.52-2.97-11.14-5.59-16.86-7.86,4.19-3.17,9.98.47,14.39,1.07,4.07.55,8.97-1.7,12.91,2.34Z"/>
          <path class="st91" d="M351.88,290.59c.32-.99.7-.98,1.14,0,10.81,11.87,8.07-8.69,11.33-10.85,2.06-1.36,9.46,0,13.51-1.28,3.18-1,4.4-3.32,7.01-4.93-4.64,11.75-14.98,4.17-19.41,7.32-2.05,1.45,0,11.51-4.46,13.74-3.93,1.97-8.41.59-9.12-3.99Z"/>
          <path class="st72" d="M441.75,89.24c.79-2.16,2.69-1.02,5.69,3.41.69-.14,1.55.04,2.28.01.19,1.25-1.1,1.06-1.14,1.13-1.51,2.46-1.25,4.11-1.95,6.62-.28,1.02.14,3.32-2.02,2.47-1.46-.58-5.01-8.38-5.16-9.77-.34-3.1,1.59-2.89,2.3-3.87Z"/>
          <path class="st9" d="M440.62,251.91c2.26,11.32-2.59,28.02,1.14,39.82-.74-.11-1.7.02-2.31-.49-3.18-2.68,1.8-34.16.04-40.46.45.2,1.05.7,1.14,1.14Z"/>
          <path class="st12" d="M397.39,290.59c2.05-.51,2.26-3.72,4.16-4.37,1.59-.55,8.14-.48,10.1-.23,9.27,1.21,6.13,14.1,17.58,6.87-1.51,3.96-2.17,5.36-7.13,4.34-6.31-1.3-4.33-6.75-7.16-8.82-2.45-1.79-11.25-1.92-13.67-.16-1.85,1.35-2.34,5.43-3.87,6.36-1.75,1.07-8.57,1.1-9.75-.52-4.09-5.6,6.77-2.74,9.73-3.48Z"/>
          <path class="st47" d="M404.21,135.88c1.34,3,3.01,2.8,5.69,1.14-.4,1.57.34,8.85-3.96,7.96-2.57-.54-1.55-7.16-1.72-9.09Z"/>
          <path class="st54" d="M230.16,342.92c-.46,2.21-5.33-3.45-6.84-5.1-.85-.92-3.81-3.03-1.12-4,2.26,2.71,6.26,5.41,7.96,9.1Z"/>
          <path class="st185" d="M462.23,268.98c.41-3.62-.74-8.35.23-11.74.58-2.04,2.37-2.15,3.19-3.05-2.33,5.09-1.68,10.51-3.41,14.79Z"/>
          <g>
            <path class="st2" d="M342.78,290.59c-2.4,5.09-9.04,1.25-9.78-3.72-2.58-2.86-19.6-5.24-18.89,2.52-2.51,5.72-12.61,6.4-11.15.06,4.86-10.57,9.57-28.53,15.93-37.54,1.42-.85,6.72-2.01,7.88-1.26,1.78,1.15,16.62,36.39,16.88,38.74.04.36-.35.78-.87,1.2Z"/>
            <path class="st78" d="M302.97,289.45c-.73,3.15,2.02,2.61,3.99,2.33,7.22-1.05,5-7.94,8.1-9,1.89-.65,16.95-.42,17.61.52,4.42,6.36-2.85,7.28,10.11,7.29.64-2.18,1.63-2.18,2.28,0,3.29,6.16-7.51,7.1-10.68,2.39-1.95-7.19-14.05-7.53-17.76-2.39-2.76,3.41-4.51,6.74-9.68,5.75-2.88-.55-2.43-4.61-6.25-3.48-.51-.42,2.01-2.81,2.28-3.4Z"/>
            <path class="st65" d="M318.89,251.91c1.75-2.48,7.38-3.5,8.97-2.14.56.48.4,6.1,3.54,6.69,2.05,9.86,13.21,26.48,13.65,34.13-.76,0-1.52,0-2.28,0l-16.52-38.74-7.37.07Z"/>
            <path class="st153" d="M329.13,275.79h-12.51s5.7-13.64,5.7-13.64c1.55-1.22,5.67,12.55,6.81,13.64Z"/>
          </g>
          <g>
            <path class="st16" d="M428.1,290.59c-.42,3-4.96,3.04-7.09,1.07-3.69-8.91-19.52-11.67-23.62-2.21l-7.94-1.68,15.77-36.33c1.04-1.48,5.59-.81,6.98-.12,1.71.85,13.52,30.16,15.34,34.76.58,1.47.44,4.32.57,4.5Z"/>
            <path class="st126" d="M428.1,290.59c.71,1,2.76-1.96,1.14,2.28-4.71,6.56-10.42,2.88-12.66-3.46-3.94-4.32-15.86-5-18.07,1.71l-1.12-.53v-1.14c1.65-12.38,10.65-5.55,19.72-6.64,4.37,4.57,2,9.48,10.99,7.78Z"/>
            <polygon class="st149" points="415.59 275.79 403.08 275.8 408.78 261.02 415.59 275.79"/>
          </g>
          <g>
            <path class="st196" d="M378.05,250.78c5.06,1.31,5.88,9.23,6.83,10.24,4.67,14.11-9.94,17.29-21.43,16.01l-1.15,3.91c0,5.4-1.31,15.03-8.13,9.66l-1.18-.5c-.54-13.04-.98-26.43.04-39.31,8.29-1.07,16.63-1.07,25.03,0Z"/>
            <path class="st117" d="M384.87,261.01c.14.15,1.59-.33,2.04.19,1.18,1.37-1.18,10.15-2.04,12.33-3.77,5.51-9.53,7.53-17.29,6.06-2.31.26-3.46.74-3.78,3.18.21,7.97-4.84,18.2-10.78,7.82.21-1.02.6-.97,1.14,0,11.45-.12,5.5-7.16,6.82-15.93,11.86.32,25.06,2.56,23.9-13.65Z"/>
            <path class="st60" d="M353.02,250.78l1.14,39.82c-.38,0-.76,0-1.14,0h-1.14c-1.36-8.72-.12-25.08-.02-34.71.02-1.92-.73-5.06,1.16-6.24.99.32.98.7,0,1.14Z"/>
            <path class="st101" d="M378.05,250.78c-6.03-1.56-18.2,1.15-25.03,0v-1.14c8.06.69,17.34-1.47,25.03,1.14Z"/>
            <g>
              <path class="st53" d="M360.98,267.85v-10.25c21.49-3.48,21.48,13.74,0,10.25Z"/>
              <path class="st25" d="M363.26,266.7c-.26-.27-.12-2.62.5-3.47,1.37-1.86,10.37-1.71,10.87.65.81,3.85-10.93,3.27-11.37,2.82Z"/>
            </g>
          </g>
          <g>
            <path class="st1" d="M446.3,332.68c-2.27-1.81-4.36-3.98-6.82-5.67,4.37-1.52,7.77-6.1,11.37-9.12.32-.99.7-.98,1.14,0-.2,6.01-3.35,9.57-5.69,14.79Z"/>
            <path class="st40" d="M449.72,315.62h2.27c0,.76.03,1.52,0,2.28h-12.51s10.23-2.28,10.23-2.28Z"/>
          </g>
        </g>
      </g>
    </g>
    <g>
      <path class="st26" d="M343.92,378.19c.35-3.01,2.04-4.58,2.15-6.19.42-5.98-3.8-11.92-4.43-17.69l4.56-.02c-7.04-6.89,1.45-7.12-1.13-13.63,4.42,1.6,8.55-3.18,13.16-3.35,5.51-.21,14.41,1.7,20.07-.37.51-.19,6.18-3.02,6.4-3.3.76-.93-.61-3.26.86-4.47,4.2-3.44,4.65,2.29,5.57,2.37.12.01,2.31-1.26.98-2.26-.41-.31-3.97-.26-1.54-2.27.86-.71,5.21,1.62,5.67,1.14.14-.15-.16-2.31,1.18-3.93.99-1.2,6.12-4.4,7.78-4.61,5.63-.73,6.11,4.27,7.15,4.91.35.21,1.73-.79,2.46-.55,1.22.41,3.25,2.78,4.2,1.89.36-.33-.98-2.23-.52-3.45.16-.42,5.65-5.92,6.23-6.19,5.15-2.38,10.53,4.08,7.95-5.14,6.27,2.95,9.45,5.9,17.05,4.55-.02.9.53,1.57,1.14,2.28-.61,3.84-2.98,6.99-7.12,9.45,2.34,1.46,3.2,3.24,2.57,5.34,2.23,1.79,4.29,5.67,7.93,4.03,7.36-3.32,8.58-22.29,18.23-24.5l-3.42,15.34,4.56-1.69c-.18,2.39-1.33,4.59-1.53,6.98-.88,10.25-.2,19.07-.74,29.41-4.9,14.19-25.78,27.26-40.23,30.84-8.92,2.21-17.37,3.91-20.41-6.05-3.37,2.15-5.84.59-7.4-4.67-4.3-4.16-27.42-1.24-33.23,1.47-6.59-1.92-11.76-3.2-18.66-1.26-3.82.21-7.23-.13-7.48-4.4Z"/>
      <path class="st113" d="M471.33,378.19c-9.5,5.23-18.95,11.12-29.58,14.79-7.83,3.45-18.72,6.98-27.37,7.81-.7.07-1.45-.38-2.21-.98-6.03-1.39,2.37.04,1.13-2.83-1.43-3.3-5.6-2.28-6.58-3.1-.58-.48-.31-2.97-1.85-4.39-.77-.71-6.99-3.21-8.16-3.32-3.26-.31-16.16.82-20.3,1.18-2.1.18-3.71,2.02-5.8,2.18-3.23.25-7.46-2.38-11.34-2.34s-5.93,2.66-9.68,1.94c-6.14-1.18-6.29-5.59-5.66-10.94,5.45,4.33,10.55.81,16.51,1.06,3.77.16,7.35,2.54,10.16,2.33,1.99-.14,3.7-1.95,5.81-2.2,5.55-.66,16.17-1.68,21.43-1.06,10.61,1.26,7.48,5.95,9.81,7.83.34.27,5.9-4.32,7.95-3.4l-3.4,2.28c-.48,1.9,1.54.69,2.01,1.3.22.29-.75,1.28-.5,1.86.23.53,2.94-.7.75,3.65,21.26,3.4,44.39-13.58,56.89-29.57,0,.1.75.68.7,1.48-.31,4.51-2.6,10.94-.7,14.45Z"/>
    </g>
  </g>
  <g>
    <path class="st28" d="M550.96,127.92l-2.53-1.24c-18.46-25.25-38.9-50.18-66.7-65.67l-1.3-2.48c-9.8-2.62-19.49-6.35-29.07-11.19.21,1.97.33,3.24-1.64,4.37-.63,8.07-5.58,8.67-12.22,5.2-.99-.15-7.77,7.97-4.6,7.97l-.24,2.76c2.32,2.88,4.16,6.27,5.55,9.71-.08.64-3.53,2.42-4.42,2.8-.1,3.16-2.56,2.63-4.55,1.14-.44-.23-.86-1.07-1.14-1.14-1.35-1.79-1.94-3.78.74-3.5l.4-3.32c-2.1-1.2-4.78-3.27-4.55-5.69-3.6.83-4.36.07-2.28-2.28-1.73-3.75-4.13-4.56-8.52-3.88-2.76-.36-4.01-2.73-3.17-5.28l-6.92,3.78c-3.36.07-3.92.87-1.66,2.4,6.74-1.38,10.84-.01,12.3,4.12.99.32.98.7,0,1.14-2.16,1.54-4.7,2.89-7.61,4.04-.4,2.21-.9,4.27-1.49,6.19,2.96-.77,3.91.55,3.41,3.41l-.12,2.95c-4.02-2.55-2.92,5.24-1.03,3.87.34-.25-.79-5.62,4.54.58l-3.38,2.83c5.21-.18,3.73,1.68,4.54,4.56.03,4.29-.95,6.55-2.94,6.76l-5,3.59c-.34,7.29-4.84,11.62-13.49,13.01-3.84,5.68-7.86,6.28-14.33,4.17-1.83,3.24-5.16,4.03-9.98,2.36l-6.56,2.51c-4.01,9.73-8.51,1.41-6.43-5.05l-1.57-1.18-.13,1.22c-7.07,2.51-15.2,5.47-16.59,13.78-.71.69-6.35,1.49-6.59-.21-.16.67-.34,1.19-.54,1.21-7.97.46-18.06.67-26,.31-.28-.01-.52-.67-.76-1.52-.17,3.59-11.32,2.68-14.22,1.14-3.04.51-3.13.05-1.14-2.28-1.3-1.27-1.55-3.42-.76-6.45l-1.52-1.51c-3.65-1.51-2.69-6.88,0-9.1-1.72-.38-2.67-1.52-2.85-3.4-3.64,5.04-8.75,7.69-15.35,7.95.12.58.19,1.15.07,1.68-.55,2.39-16.95,14.58-20.54,15.39-6.29,3.59-17.44,4.46-23.89,1.14-3.06-1.74-1.78-5.6,1.14-6.83,1.06-3.93.68-5.45-1.14-4.55-5.77.75-1.24-7.1.89-9.95-1.07-2.42-.61-5.17,1.39-8.25-.92-1.48-2.82-2.24-5.69-2.28-2.33,2.04-3.09,1.66-2.28-1.14l-1.98-.98c-5.12,6.68-9.83,13.58-14.54,20.54l-1.68-.21c26.75-58.77,90.1-102,154.16-109.2,80.22-9.02,164.48,35.97,198.5,109.2Z"/>
    <path class="st120" d="M480.43,58.52c28.35,16.33,53.76,41.33,70.53,69.39,1.8,3,3.12,6.97,4.55,10.24-3.11-3.33-7.17-7.16-10.24-11.38-11.02-15.14-17.54-23.81-30.71-37.54-1.17-.8-1.55-1.56-1.14-2.28-12.52-10.49-26.46-19.31-40.14-27.68-1.97-4.76,2.54-2.57,5.37-.87l1.77.11Z"/>
    <path class="st162" d="M414.45,104.03c-2.45,5.93-5.97,11.86-10.99,15.68-1.74,5.42-6.15,9.18-13.23,11.26-2.46,4.71-7.89,4.46-12.43,2.98-3.02,2.85-7.26,4.11-12.73,3.77-5.38,5.86-8.26,6.77-8.64,2.71l-2.36-1.19c1.17-11.65-17.25,5.12-18.48,9.89-15.35.2-30.7.33-46.06.39l-1.36-2.27c.06-2.17.2-4.73,0-6.83-.15-.6.08-1.13.74-1.16l45.19-1.53,2.51-1.77c-1.81-4.69,15.16-13.43,16.17-12.54.13.12-2.43,1.58.24-1.2,4.93.05,3.22,5.34,3.42,9.1,2.51-.41,1.53-3.55,3.01-4.65.35-.26,7.61-3.04,8.04-3.09,2.25-.27,4.6,1.36,6.38,1.01,1.18-.24,1.13-3.02,2.53-3.37,1.54-.38,6.32,2.12,10,.81,1.59-.57,2.1-3.06,3.74-4.21,2.8-1.96,9.86-3.37,10.44-3.85,1.5-1.25,2.5-8.11,3-8.87.2-.3,4.76-3.58,5.57-4.17.99-.72,2.72-.14,3.02-.35.19-.13-2.42-3.82,1.13-4.54.88,3.08,1.43,4.53,1.14,7.96Z"/>
    <path class="st168" d="M356.43,140.43c-1.23-.34-1.67-1.26-3.68-.92s-14.54,6.72-15.42,8.02c-.7,1.03-.04,2.33-.24,3.15,1.2,4.22-1.97,6.13-6.02,5.93-5.31-.27-10.51-.35-15.59-.25-9.83-5.49-19.29-9.08-28.44,0v-1.14c1.56-2.49,1.07-5.24,1.14-7.96l47.06-.15c3.33-5.77,4-8.18,10.19-11.42,9.31-4.86,10.42-5.22,11,4.75Z"/>
    <path class="st163" d="M447.44,85.83c2.43-1.98,11.36-.26,11.44,2.95,3.27-2.81,8.14-1.74,11.31.46-.02.29,1.27,2.89,1.14,5.69-1.58,3.06-4.93,4.11-10.04,3.13l-2.72,1.81c-2.14-1.99-4.88-1.88-8.21.34l-1.79-3c-.12-1.12.08-2.29,0-3.41l-1.14-1.14c-3.08,1.15-3.37-4.6-2.28-5.69.93-.25,2.15-1.13,2.28-1.14Z"/>
    <path class="st124" d="M450.85,52.84c-.24.74-1.03,1.62-1.14,2.28-.17,1.07.18,2.37,0,3.41-2.91,7.31-4.74,9.73-11.68,4.64-.72-.16-3.98,3.53-4.24,4.46h-1.14c-.95-1.18-5.09-2.91-4.55-5.1,5.32-1.32,4.47-4.66,6.14-6.27,6.1-5.88,8.47,7.18,15.47-4.55,1.59-1.51,2.23-.81,1.14,1.14Z"/>
    <path class="st100" d="M472.47,64.21c-2.18,4.21-5.38,2.87-9.1,2.29,3.65,3.58,2.26,7.39-1.14,2.26-.73-1.09-.73-2.77-1.14-3.41,5.18-1.55,2.92-1.67,1.14-5.68,2.68-.17,3.77,2.49,6.02,3.68,1.57.83,3.35.49,4.22.86Z"/>
    <path class="st163" d="M284.77,118.82c-4.16.58-4.38,5.55-8.31,7.15-5.31,2.15-6.11-3.28-9.89,6.51-4.14,4.56-13.55,13.3-19.67,15.27-2.43.78-23.09-.14-23.85-1.07-.39-.48-.64-1.07-.85-1.69-.03-1.12-.08-2.3,0-3.41,8.03-.18,15.82-1.16,23.89-1.14,6.82-3.49,17.59-9.94,20.48-17.06,5.58-6.36,2.58-2.24,7.89-4.02,2.96-.99,6.33-5.33,6.92-8.49,3.41,1.47,3.13,4.98,3.4,7.96Z"/>
    <path class="st121" d="M480.43,58.52c-1.79,2.35-5.3-1.6-5.68-1.14-1.78,2.19,6.04,4.51,8.3,5.91,11.36,7.04,21.08,14.14,30.37,23.67l-50.61-32.97c-3.77.62-2.53,4.17-2.86,4.53-1.78,1.94-3.26-3.42-5.07-4.63-1.71-1.15-3.33-.7-4.02-1.05-.21-.11-.92-.85-1.14-1.14-.95-1.26-.54-6.06-.58-7.95,10.39,4.9,21.31,9.03,31.29,14.78Z"/>
    <path class="st29" d="M353.02,122.23c2.03,3.01,1.06,1.75-1.09,2.84-6.01,3.08-15.05,5.88-14.89,14.16l-48.86,1.19c-.07-.74.15-1.66,0-2.28,3.59-.21,7.27.31,10.85.04,1.46-.11,2.98-1.18,3.37-1.18h27.3c.31,0,5.86-1.1,6.1-1.29.29-.23.63-4.27,3-6.68s11.07-6.85,14.22-6.82Z"/>
    <path class="st181" d="M422.41,65.35c-1.14,3.4-5.06,1.73-7.96,1.14-1.62-.33-3.71-1.9-6.43-2.21-3.26-.38-7.8,2.5-9.33-3.1-1.23-4.51,2.74-2.59,4.27-3.29,2.22-1.03,8.7-6.81,10.02-2.04.23.85-1.05,2.45.32,3.28.91.55,6.13-1.44,9.25,2.19,1.79,2.09-.18,3.3-.14,4.04Z"/>
    <path class="st48" d="M414.45,67.62c-1.4,1.74.8,7.19,0,7.96-.34.33-7.44-.13-9.11,2.27-4.53-6.89,2-11.29,9.1-10.24Z"/>
    <path class="st7" d="M246.09,140.43c6.17-6.53,14.61-10.39,20.48-17.06,1.9,2.5.69,3.38-1.1,5.16-1.68,1.68-14.43,11.75-16.02,12.52-1.86.91-2.79-.61-3.36-.61Z"/>
    <path class="st50" d="M429.24,73.31l-1.15,3.42c-2.29-1.07-4.49-2.4-6.81-3.42-.14-3.79-.66-4.63,3.41-5.69,3.9,2.09,3.47-2,4.55,5.69Z"/>
    <path class="st37" d="M224.47,111.99c-3.57,3.07-12.06,2.15-5.69-2.28,2.43-1.69,5.43-2.97,7.95-4.55.43.53-1.72,6.36-2.26,6.83Z"/>
    <path class="st86" d="M223.34,134.74c-.13-.82-1.16-.4-1.14-4.55l6.81-7.96c-.52,4.95-2.39,8.89-5.68,12.51Z"/>
    <path class="st38" d="M284.77,127.92l3.41-1.13-1.14,9.09c-.08-.12-1.96.56-2.3-.75-.44-1.72.07-5.07.03-7.21Z"/>
    <g>
      <path class="st114" d="M61.8,170.01c1.2,0,6.6.79,6.9,1.84-1.26,18.42,1.46,38.52-.09,56.73-1.24,14.61-6.66,24-22.18,25.6-15.84,1.63-22.95-.9-26.72-17.05.41-2.47,1.17-3.23,2.28-2.28.55.56.55,1.32,0,2.28l2.3,1.17c3.01,20.95,32.46,13.61,32.89-5.22l2.35-1.64,1.09-58.55c-2.2-1.22-1.08-2.11,1.19-2.88Z"/>
      <path class="st123" d="M715.91,173.42c1.97.67,3.92,2.26,5.69,3.41,5.9-.56,5.93,19.45,5.11,20.21-1.83,1.72-6.67-2.94-6.6-5.09-6.07-7.61-18.08-7.14-13.3,4.21.35.65.97,2.06,1.14,2.28-.46,3.37-3.9,3.9-10.32,1.61,3.3,6,3.33,8.87.09,8.63-2.72.82-4.82-1.37-3.54-3.71-3.46-3.77-4.61-8.75-3.46-14.93-3.1-.82,4.01-15.23,4.65-16,2.91-3.54,16.79-4.02,20.56-.62Z"/>
      <path class="st17" d="M707.95,198.45c.31.4.79.73,1.14,1.14,4.32,5.1,8.87,10.03,13.65,14.79,5.55,7.14,9.9,17.74,5.69,26.16-1.11.2-2-.11-2.64-1,.63-8.23-1.28-11.79-5.74-10.66-.03,2.01-.92,2.54-2.99,2.56l-2.81-.72c-4.35-7.61-10.04-14.01-17.07-19.2l.54-2.83c2.08-2.38-1.55-4.08-2.1-6.5-2.07-9.16,8.38-.61,12.33-3.74Z"/>
      <path class="st77" d="M97.06,181.38c.48-2.6-.74-13.66.12-14.67.96-1.12,21.12-2.65,22.56-1.19.08,14.37.13,28.79.07,43.16-.74,5.05-1.53,10.14-2.39,15.27l.18,18.56-2.34,1.43c-3.63.74-8.73,2.09-12.51,1.14-.71-.34-.69-.72,0-1.14-.81-4,8.82-4.39,10.24-1.14l-2.28-1.05v-73.81l2.28-1.36-1.06,2.36-11.34.87c.49,4.37-.31,8.22-2.39,11.56-.32.99-.7.98-1.14,0Z"/>
      <path class="st115" d="M558.92,158.63c2.15,2.19.7,5.13,1.14,5.69,1.77,2.23,2.46-2.25,3.41-3.41,2.53.42,2.64,7.36,0,7.96,1.72,8.35,2.36,16.76,0,25.03,2.23,4.13,2.21,8.38,0,12.51,1.9,10.11,2.04,21.85,1.14,31.85l2.6.74c.64-3.18,2.46-1.56,4.23.4.35,2.4-.81,4.58-1.14,6.83-3.13-3-7.64-1.51-10.64-2.44s-1.55-6.6-1.94-9.48c-1.08-8.01.79-12.32,1.2-21.07-.84-18.24-.84-36.44,0-54.6Z"/>
      <path class="st97" d="M715.91,173.42c-24.76-8.47-30.03,18.68-18.2,35.27,5.79,8.12,15.57,13.24,19.34,22.75,4.23,2.96-.48,10.5-5.11,11.29-3.54.61-12.84-3.7-10.81-7.88.62-1.76,2.07-2.05,4.34-.87-.92-3.25-1.23-6-.92-8.23-.3-5.93-6.41-10.35-12.51-12.51-3.93.73-5.09-2.15-4.55-5.69-1.01-.21-.97-.6,0-1.14.28-.56.58-1.01.95-1.07,5.75-1,4.36,1.31-.39-.02-.28-.08-.43-.57-.56-1.18-4.24-3.2-1.57-8.92.45-12.4-6.32-1.63-4.63-8.59,1.83-8.08.16-3.05.16-6.09,0-9.1,5.57-4.19,20.61-6.84,26.16-1.14Z"/>
      <path class="st136" d="M194.9,191.62c-.44,3.58-1.53,6.25-3.28,8-1.19,13.18-3.27,26.22-6.23,39.12-.76,3.58-4.78,6.88-7.56,4.07.02-.75-.07-1.53,0-2.28l-1.28-2.26c4.11-21.8,8.31-43.59,12.6-65.37l2.34-4.04c-3.26-1.25-1.13-7.14,1.14-9.1.35.03.93.09,1.14,0,1.12-.38,2.12-.31,2.99.21,1.07,10.13,1.53,21.7-1.85,31.65Z"/>
      <path class="st44" d="M644.24,217.79l2.31,1.12c1.37,13.56,8.58,30.64,25.21,25.7l2.06,1.62c-3.19,2-3.36,3.5-8.53,3.5-12.83,0-21.16-5.21-25.59-17.15-.45-6.4-1.23-12.84-2.34-19.31,4.27-1.74,3.02-10.46-.75-12.7,1.42-3.56,1.69-6.54.82-8.94-2.68-.68-2.72-2.78,0-3.41.24-1.08,1.01-1.8,1.14-2.28,1.98-1.55,3.5-3.44,4.55-5.69-.77-3.37,4.07-10.35,7.96-9.1l1.48.52c-3.09,7.81-4.89,13.33-6.06,22.53-.5,7.8-1.25,15.67-2.24,23.59Z"/>
      <path class="st35" d="M614.67,164.32c1.19-.41,3.04-.92,3.91-.05-1.93,7.49-1.34,13.95,1.77,19.39,2.69,18.42,3.31,37.01,1.87,55.75,5.57-.97,9.5-.22,11.79,2.27,1.59-1.63,1.87.61,1.14,2.28-3.46,1.14-12.96-.54-17.06-1.14-1.04-5.88-1.77-13.05-1.96-19.46-.03-.98,1.85,18.58.83,19.46-1.03-.15-2.71.27-3.41,0-1.24-8.43-.88-17.64,0-26.16v-2.28l-1.13-.09c.15-16.66.53-33.31,1.13-49.97.06-.17.9.17,1.14,0Z"/>
      <path class="st140" d="M82.28,167.73c.99.32.98.7,0,1.14.62,3.04-1.86,4.18-7.44,3.44-.56,21.22-1.14,42.51-1.73,63.88-.43,3.84.35,7.18,2.34,10.04,1.18-2.7,3.84-3.08,7.96-1.14,1.17-1.46,1.98-2.15,2.28,0,.57-13.27.91-26.67,1-40.21l1.28-.74c3.83.32,4.84,6.62,2.28,9.1-1.74,1.98-.69,6.38,2.28,5.69,6,5.21,11.49,17.21,10.24,25.03v1.14c-.7-.18-1.27-.51-1.64-1.15l-6.32-14.77v17.06l-23.89,2.28v-79.63c3.92.02,7.39-1.03,11.38-1.14Z"/>
      <path class="st51" d="M590.78,160.91c1.51,1.53.92,1.49-1.14,1.14l-1.82,2.01-16.39-.64c-.25,23.87-.67,47.74-1.28,71.62.55,1.4,2.49,2.1,5.83,2.09,2.98,1.02,5.12.66,6.42-1.07,14.18,2.6,22.62-6.45,24.99-19.76l2.72-1.92c.32-.99.7-.98,1.14,0,.9.29.87.67,0,1.14-1.01,5.61-1.8,9.01-4.78,13.99-8.57,14.34-20.66,10.63-35.04,9.9-2.57-.13-4.82.84-6.83-1.14,1.09-10.78.71-21.4-1.14-31.85-.03-4.16,0-8.35,0-12.51,2.08-5.26,2.47-11.06,1.18-17.4l1.09-.8c-.3-5.15-.4-10.29-.29-15.43l1.43-.5c5.69-.72,18.35-.33,23.89,1.14Z"/>
      <path class="st180" d="M139.16,192.76c2.85,3.57,4.75,6.99,5.69,10.24l-.06,38.62c-6.33.91-12.94,1.62-19.34,1.85-1.54.06-1.01.66-2.21-.66-.53-1.46-.27-1.91,1.14-1.14,3.01-3.37,8.33-4.05,12.11-2.04-1.38-15.62-1.34-31.41,1.54-46.88.32-.99.7-.98,1.14,0Z"/>
      <path class="st18" d="M36.77,173.42c2.38.5,3.22,3.39,2.51,8.68.1-1.83,1.34-2.61,3.18-2.99l1.09,1.93c.31,16.22-.12,32.27-1.29,48.16,1.5,1.9,2.04,4.39,2.47,6.79,2.7,4.03-3.43,6.91-7.16,5.37s-5.84-8.64-2.49-10.32c-.46-18.14-.28-36.21.54-54.2-1.75.21-2.85-.53-3.41-2.28-.99-.32-.98-.7,0-1.14,1.49-.15,3.07.18,4.55,0Z"/>
      <path class="st46" d="M61.8,170.01l-2.28,61.43c-2.17-.64-2.17-1.63,0-2.28-.68-5.13-.87-10.34-.56-15.63l-1.71-.89-.12-37.88-8.83.75-.06,34.23c-.31,2.82-1.1,5.5-2.37,8.05,3.74,2.47,3.7,15.85-1.14,17.06l-2.28-5.04c.93-17.1,1.31-34.2,1.13-51.33l-1.13.62c-3.62,10.81-.91,24.06-2.27,34.72-.21,1.66-.87,3.53-2.27,1.68l-1.14-42.08c7.49-.89,17.32-3.43,25.03-3.41Z"/>
      <path class="st104" d="M637.42,188.21c-.22.99.19,2.37,0,3.41l1.31,1.24c-1.57,5.84-1.97,12.84-1.58,19.55,1.32,1.86,1.49,8.51.26,11.06-3.11,3.15.84,19.45-2.28,20.48.09-.85-1.1-1.93-1.14-2.28l-2.58-2.87c-1.37-23.57-.78-47.68.96-71.04l-9.84.06c.31,5.45.55,10.91-2.19,15.83-6.94,1.11-4.62-11.94-4.46-16.42.07-1.96,2.82-3.31-1.22-2.92,4.25-3,15.9-.17,21.12,1.06l1.63,22.83Z"/>
      <path class="st8" d="M192.62,159.77c.95,3.46-.72,6.55-1.14,9.1l-2.66,4.88-12.07,62.75-2.33,2.9c-4.06-.16-11.7,3.15-14.79,0-.03-1.1,0-1.55,1.14-1.14,1.68-2.48,5.19-3.19,10.53-2.15l13.16-72,2.48-.93c2.68-5.79,1.97-3.72,5.69-3.41Z"/>
      <path class="st11" d="M689.75,248.5c0-1.95-1.51-3.47-4.55-4.55-1.78-3.72-.94-5.26-1.14-9.1-.01-1.83,1.51-2.69,4.56-2.59-.95-5.33-.19-9.02,2.27-11.06,3.32-2.48,6.34,3.26,3.41,5.69-4.92,17.76,14.03,30.76,28.41,19.86,1.55-3.18,3.46-5.25,5.72-6.21,2.5-9.85-.7-17.84-5.69-26.16,7.77,8.17,9.96,17.47,6.5,28.68-4.93,15.95-28.59,13.37-39.49,5.44Z"/>
      <path class="st87" d="M191.48,168.87c-3.73,22.84-11.45,49.65-13.65,71.67-1.03-.56-2.23-1.09-3.41-1.14,5.88-21.76,8.94-44.16,12.72-66.38l4.34-4.15Z"/>
      <path class="st4" d="M163.04,160.91c1.61,5.13,3.12,10.44,4.55,15.93,1.15,1.52.57,3.56,2.26,3.41-.11-4.57.63-9.13,1.15-13.65h1.14l1.79,2.97c-.07,4.45-3.38,36.16-5.12,36.8s-2.98.83-4.7-.4l-5.82-40.46c-.56-1.04-11.95-.16-12.31-.04-2.81,1.48-3.23.71-2.28-2.28,6.22-.43,11.54-3.42,19.34-2.28Z"/>
      <path class="st55" d="M141.43,163.18c.75-.06,1.52.05,2.28,0,.65.71,1.86,1.48,2.28,2.28,1,.36.99.73,0,1.14.39,1.93.01,3.07-1.14,3.41-.89,10.14.02,22.55,0,32.99-3.38.95-1.65-2.36-2.5-3.2-2.45-2.4-2.85,3.23-3.19-7.04-.74-9.37-.96-18.76-.65-28.16-2.58-1.87.67-2.48,2.92-1.42Z"/>
      <path class="st67" d="M141.43,163.18c-3.43-.64-2.2,1.74-2.28,3.93-.28,8.29-.28,17.37,0,25.65h-1.14c-2.25-8.53-3.06-17.3-1.68-26.02l-9.56.8c-.16,24.23-.21,48.49-.13,72.78l-2.28,1.36c-.52.05-1.04.59-1.14,1.14-4.21-4.62,1.27-68.88,0-79.64,5.67.81,11.05-.66,16.42-1.09.84-.07,1.62,1.11,1.79,1.09Z"/>
      <path class="st186" d="M721.6,176.83c.98.64,5.69,2.24,5.69,3.98v21.05c-8.87,1.61-7.46-1.66-11.38-5.69.17-3.14-2.11-5.42-6.83-6.83-1.13.03-2.28-.04-3.41,0l1.13,6.82c-6.55-12.06,3.87-15.31,12.41-7.29l6.92,7.29c-.2-7.68,1.97-13.88-4.54-19.33Z"/>
      <path class="st95" d="M637.42,191.62h4.54c1.22,1.48-4.65,6.01-4.52,7.41.08.82,2.82,1.45,3.46,2.48,2.13,3.46.66,9.97,1.06,14l-3.39-1.13c-1.76,6.44,5.45,13.12,1.13,18.2-1.06-2.86-1.83-6.06-2.28-9.1-.38-2.58.55-5.87-.02-8.32-.21-.92-2.07-.3-2.34-2.41-1.05-8.08,1.06-13.79,2.37-21.12Z"/>
      <path class="st178" d="M119.82,208.69c-.05,11.74.03,23.53,0,35.27-1.44.2-3.23-.27-4.56,0,.88-7.84-1.72-19.28,1.22-26.43.34-.83,2.11-.87,2.23-1.64.4-2.52-2.86-5.84,1.1-7.19Z"/>
      <path class="st109" d="M160.77,238.26c-.32.04-.8.82-1.14,1.14l-14.79-69.39c.11-1.21.54-2.36,1.14-3.41,4.07,3.9,6.38,9.46,6.91,16.66,2.67,16.97,5.68,33.87,9.06,50.68l-1.18,4.33Z"/>
      <path class="st77" d="M85.69,167.73c3.81,4.09,6.84,9.24,9.06,15.43.35.45,1.5.24,3.45-.64,3.25,2.17,3.01,22.43,1.66,23.49-1.92,1.51-4.39,1.16-5.27-1.22-3-11.3-7.21-22.06-12.66-32.29l.34-3.63v-1.14c1.1-.03,2.33-.11,3.41,0Z"/>
      <path class="st152" d="M686.33,220.06c1-3.6,5.2-2.7,4.55,1.14v13.66s-6.83,0-6.83,0c-.02-.38.01-.76,0-1.14-1.15-1.83-1.15-4.48,0-7.96-3.11-2.15-3.08-4.66,0-6.83-.58-1.52-1.03-3.21,0-4.55,1.32.15,2.08,2.05,2.28,5.69Z"/>
      <path class="st107" d="M97.06,181.38h1.14c1.01.21.97.6,0,1.14l-2.28,7.41c-4.04-7.01-7.95-14.45-10.23-22.19,9.92,1.04,5.96,7.08,11.38,13.65Z"/>
      <path class="st131" d="M32.22,173.42v1.14c.12,3.82-7.14,4.03-9.52,3.77.53,19.21.29,38.05-.72,56.52l-2.28,2.28.15-60.71c.77-2.32,9.56-2.72,12.36-3Z"/>
      <path class="st179" d="M689.75,183.66c-1.94,2.09-6.99,2.53-3.05,5.42,1.34.98,4.67-1.1,3.06,5.21-.09.35-6.05,2.46-.01,3.03v1.11c-5.67.88-2.46,3.39-2.27,5.71,2.94.84,2.93,1.4,0,2.28-.37,1.1-1.09,1.76-2.21,1.91l-1.2-7.6c-3.33-2.25-4.77-11.47-1.14-13.65-.7-1.93-1.32-4.08,1.14-3.41.1-.36-.12-.82,0-1.14,1.45-2.95,5.53-2.25,5.69,1.14Z"/>
      <path class="st170" d="M618.08,242.81c-.37-.05-.77.05-1.14,0-.17-10.89-5.94-22.84.57-33l.57,33Z"/>
      <path class="st193" d="M611.25,188.21c2.17,1.72,1.86,6.39,1.14,9.1-.32.99-.7.98-1.14,0-.45-.38-.83-1.14-1.14-2.28-2.21-10.25-6.62-19.11-13.24-26.59-4.24-1.63-6.66-3.76-7.24-6.4l1.14-1.14c12.31,3.25,18.33,15.83,20.48,27.3Z"/>
      <path class="st13" d="M613.53,214.37l-2.28,1.14c.07-.37-.05-.77,0-1.14-.25-5.67.13-11.36,1.14-17.06-.15-3.25-.55-5.94-1.14-9.1l2.28-23.89v50.05Z"/>
      <path class="st145" d="M678.37,175.69l-2.27.95c-6.28-7.05-14.05-10.67-22.44-4.58l-2.59-.92c-2.52,1.26-4.04.88-4.55-1.14,9.74-7.14,27.1-6.98,31.85,5.69Z"/>
      <path class="st187" d="M651.07,171.14c-3.88,3-4.33,6.87-7.96,9.1.58,3.12-1.33,3.5-3.41,1.14,1.99-5.81,1.37-7.38,6.83-11.38,1.57.17,4.31-.8,4.55,1.14Z"/>
      <path class="st84" d="M689.75,174.56l4.55,1.15c-1.62,2.32-2.73,5.99-4.55,7.95l-5.69-1.14c1.05-2.76,3.28-6.15,5.69-7.96Z"/>
      <path class="st20" d="M163.04,160.91c5.58.82,4.18,11.29,4.55,15.93-.62-.83-2.18-.76-3.12-3.12-1.36-3.42-1.41-9.06-1.43-12.81Z"/>
      <path class="st144" d="M566.89,159.77c-.61,5.03,1.41,11.58-1.14,15.93-1.12-1.63-1.88-3.9-2.28-6.83v-7.96c.37-.46.57-.82,1.14-1.14.36-.19,1.56.09,2.28,0Z"/>
      <path class="st43" d="M715.91,196.17c-2.07-2.13-5.43-3.76-6.83-6.83,4.79-.15,7.21-.29,10.22,3.98l-3.4,2.84Z"/>
      <path class="st106" d="M684.06,233.71c-4.12,6.36-3.63,8.38-10.24,12.51l-.54-1.44c3.54-5.38,6.19-11.43,7.97-17.73l2.81-1.31c.05,2.6-.1,5.44,0,7.96Z"/>
      <path class="st63" d="M722.74,214.37c-4.31-4.53-11.36-8.68-13.65-14.79,4.88,5.64,9.35,7.6,13.65,14.79Z"/>
      <path class="st13" d="M613.53,242.81c-1.67-.63-1.03-1.47-1.19-2.78-.58-4.82-.02-11.99.03-17.14.02-1.92-.73-5.06,1.16-6.24v26.16Z"/>
      <path class="st137" d="M643.11,180.25c2.13,2.93-.3,6.61-4.03,6.48l-.52-.8c.43-1.58.44-2.51,1.14-4.55,1.22-.15,2.36-.49,3.41-1.14Z"/>
      <path class="st157" d="M685.2,243.95c1.5-1.01,10.6,2.33,9.1,3.4l-4.55,1.15c-1.88-1.37-3.47-2.3-4.55-4.55Z"/>
      <path class="st41" d="M684.06,183.66c-.31,1.07-1.12,2.1-1.14,3.41-4.4.81-6.9-8.28-4.55-11.38l5.69,7.96Z"/>
      <path class="st198" d="M550.96,234.85c-7.8,6.69-20.31,3.87-27.64-2.88-1.9-1.75-5.4-9.63-4.22-12.48l-1.14-.35c.37-20.12.09-40.22-.82-60.3l1.96-1.35c.84-.77,14.63-.4,14.8.35-.06,21.36-.06,42.48-.01,63.35,3.57,3.01,6.91.91,8.28-3.54.13-19.85.37-39.61.69-59.26,2.86-.17,15.44.07,15.49.85.93,14.53,1.51,37.04.12,51.22-.09.94-.36,1.86-.69,2.77-.35,6.59-1.1,17.17-6.83,21.61Z"/>
      <path class="st90" d="M437.2,156.36c5.37-8.68,24.77-2.19,30.22,3.42,1.69,1.73.38,14.3-1.79,15.92l-1.31.69c-9.92-15.01-28.1-12.12-14.62,6.13,8.22,9.7,15.99,12.12,19.34,26.16,2.48,12.51-2.83,24.82-16.59,26-6.34.54-17.37-2.28-20.69-8.04-.47-.81-1.86-17.93-1.12-18.5.4-.31.96-.4,1.58-.43l8.35,8.48c8.7,8.1,18.75,2.1,12.13-8.63l-16.15-14.92c-8.71-9.84-10.45-27.61.65-36.29Z"/>
      <path class="st21" d="M436.07,156.36c-.39-.59-.65-1.12-.49-1.4,4.8-8.49,23.22-3.65,29.29,1.7,1.39-.67,2.41-1.52,3.06-2.57.38-.99.76-.99,1.14,0,5.35-1.18,11.67-1.14,17.06,0,5.75.31,10.13,1.83,14.79,2.28l-3.29,2.09-24.02.5c-1.5,6.59.82,9.14,6.97,7.63,3.12.15,6.67.62,4.41,4l2.28,1.04v59.6l-2.28,1.35c1.23-3.53,12.69-2.42,13.65,1.14l-2.28-1.05v-60.15l2.28-1.37c-.35-3,2.89-4.09,9.72-3.25,1.84-7.28,1.12-8.18-6.52-9.08l-.92-2.47c4.33.41,9.63-1.61,12.51,0,.55,5.49.38,11.45-.32,17.04-2,2.94-6.96,2.82-10.26,2.62-.38,1.88-1.2,3.32-2.44,4.31l.51,53.38c-.05.41.11.89,0,1.14-1.95,2.72-21.86,3.26-21.99.85-.53-9.36-.55-19.03,1.52-28.15.3-2.04.71-2.5,1.21-1.4-.76-10.84-.62-21.64.07-32.47l-1.29-1.39-2.33,2c-5.77-2.39-9.16-1.16-10.18,3.69,1.97,0,1.97.77,0,2.28,1.39,1.67.76,2.28-1.14,1.14-3.43,2.56-5.68-1.42-2.28-3.41-1.49-1.85-1.22-2.03,1.14-2.28.23-2.98.55-14.6-.74-16.04-5.12-5.72-21.24-9.26-27.7-3.3h-1.14Z"/>
      <path class="st119" d="M437.2,156.36c-8.6,10.38-7.89,24.98.56,35.28,4.24,5.17,27.93,20.51,15.83,28.3-7.81,5.02-17.32-6.21-22.06-11.25,3.59,9.66-4.05,14.23,5.75,20.97,17.26,11.88,34.42-1.46,31.78-20.97,2.19,9.17,1.24,13.4-3.41,21.61-6.17,11.01-29.9,8.78-36-.43-2.61-3.93-1.45-18.53-.4-23.46.48-.71-1.11-2.96,1.69-2.27,3.73,4.44,12.32,16.07,18.79,14.78,1.94-2.57,1.2-6.4.33-9.32l-14.02-11.91c-6.99-7.47-10.05-15.12-7.92-25.42-1.61-1.32-.89-2.79,0-4.55.97-2.3,1.96-4.8,3.41-6.83-.37-2.3,2.32-5.73,4.55-4.55h1.14Z"/>
      <path class="st151" d="M519.11,155.22c.27.03,1.25,1.15,2.75,1.18,4.39.1,8.8-.16,13.18-.05.06,2.27-.09,4.56,0,6.83,1.82,18.97,1.93,39.05,0,58.02-.33.77-.71.76-1.14,0-.58-1.39-1.05-5.59-1.18-7.35-1.36-17.78,1.1-37.27.05-55.23l-13.66-1.13v62c0,4.31,5.26,13.35,9.45,15.58,5.15,2.74,17.66,3.46,22.41-.22-.14.69.2,1.76,0,2.28-7.42,2.79-14.1,3.13-21.61,1.14-.53-1.39-3.19-2.91-7.96-4.55-.88-.84-1.38-.98-2.28-2.28-.26-2.88-1.35-6.49-3.26-10.82l.98-1.13-1.13-.09c-.82-17.43-.44-34.46,1.13-51.1-1.43-2.41-2.19-6.01-2.28-10.81.52-2.22,2.55-2.49,4.55-2.28Z"/>
      <path class="st98" d="M480.43,172.28c1.4,11.6,1.24,23.64,0,35.27.03,9.09-.02,18.22,0,27.31h20.48c-.2.41-6.94,5.3-7.53,5.37-1.73.18-15.42-1.14-16.36-1.96.02-19.69-.31-39.2-.97-58.54,0,0-2.71-.58-8.13-1.75,0-2.27-.01-4.56,0-6.83,4.16-1.1,9.21,1,12.52,1.14Z"/>
      <path class="st32" d="M558.92,158.63c-.64,18.13.87,36.5,0,54.6h-1.14c.93-17.62-.69-35.79,0-53.47-3.22-.01-6.47.05-9.71.03-1.98-.01-4.73-2.47-4.64,1.19.41,17.28,2.36,36.7.55,53.81-.27,2.52-1.04,8.14-3.25,9.28-2.98,1.54-5.63,0-6.84-2.88h1.14c.33-1.38,1.1-1.49,2.28-1.14.09-.91.47-1.29,1.14-1.14l.79-2.01c0-12.91.17-33.38.35-49.18l1.14-.73c-2.06-4.5-1.68-7.67,1.14-9.51,3.22-.35,15.32-.63,17.06,1.14Z"/>
      <path class="st161" d="M392.84,154.08c-.32.99-.7.98-1.14,0,.11,21.39-.27,42.63-1.14,63.7l-2.29-1.01c-.17-20.21-.65-40.35-1.43-60.42-5.33.95-9.02.19-11.06-2.27l2.28,1.05v73.81l-2.28,1.36c.07-.6.2-1.14.53-1.52.96-1.1,24.11-1.03,27.41-.76l1.64,2.28c-1.85-2.17-2.72-5.49-2.61-9.98l-9.99-.16-1.05-2.38c-.74-.34-.73-.72,0-1.14,4.33-.99,10.35-.94,14.79,0,.43,4.13.43,11.79,0,15.93-.04.55-.12,1.07-.35,1.52-.74,1.43-28.86,1.73-31.51-1.52l-1.56-7.22c1.24-23.45,2.03-48.89.42-71.28.04-.76-.06-1.52,0-2.27,4.22.8,18.24-2.07,19.35,2.27Z"/>
      <path class="st174" d="M338.23,152.94c1.8,1.4.76,5.67-1.14,6.83l-5.49,18.68c-2.29,1.9-5.17,2.04-7.49.06-.34-7.81-2.08-14.43-5.22-19.88-1.03-.68-2.55-1.79-3.41-2.28,4.64-6.3,19.63,2.34,21.61-5.69,1.09.07,1.2,1.4,1.14,2.28Z"/>
      <path class="st64" d="M449.72,218.92c1.18-5-2.49-5.6-4.55-7.96-11.33-8.93-23.37-22.38-18.47-37.97.11-.35.69-.55,1.41-.71-.03,11.94,1.9,16.1,10.2,24.5,3.08,3.11,12.58,9.03,13.97,12.19,1.32,2.98,1.06,9.23-2.56,9.95Z"/>
      <path class="st119" d="M465.64,175.69c-.07.96-.03,1.97-1.14,2.28-.46-.45-1.67-.65-2.28-1.14-2.82-3.64-7.83-8.88-12.51-7.96-.19.2-2.94-2.31-4.07,2.24-.76,3.05,1.05,3.8,1.79,5.73s1.71,3.71,2.28,5.69c-3.25-3.83-7.91-7.36-5.09-13.63,4.12-9.17,17.26,2.15,21.02,6.8Z"/>
      <path class="st116" d="M406.49,215.51c.03.38-.04.76,0,1.14h-14.79c-.73-.34-.71-.72,0-1.14h14.79Z"/>
      <path class="st198" d="M172.15,166.59c1.4-7.03,4.88-5.83,10.86-5.68,2.19.06,4.56-1.15,3.93,2.27l-13.71,75.02c-.54.53-10.13-.2-12.46.06-6.48-22.25-7.01-50.2-14.79-71.67-.13-.35.15-.86,0-1.14-.63-3.54,1.77-2.09,3.95-2.26,2.36-.18,9.62-1.23,10.32-.07l6.22,43.28,2.11-8.68c2.02-9.72,1.7-21.74,3.57-31.13Z"/>
      <path class="st96" d="M287.04,155.22v1.14c-3.55,3.52-6.51,9.75-6.83,14.79l-3.41-1.14c-4.39-8.65-9.57-15.32-20.58-14.5-7.24.43-14.41.71-21.51.85-.4,2.36-.78,4.64-1.14,6.83-1.23,2.64-1.98,2.26-2.28-1.14.01-2,.52-4.73-1.86-5.53s-12.82-.28-16.34-.16c3.06-1.08,8.85-2.19,11.99-2.33,2.38-.1,4.48,1.21,6.66,1.08,12.03-.7,25.81-5.37,37.02.75,4.56,2.49,5.85,5.87,9.74,8.53l8.54-9.17Z"/>
      <path class="st5" d="M44.74,235.99v-1.14c1.86-5.86,1.01-10.9,1.14-17.06,1.52-5.58,7.02-9.88,13.09-5.08-.35,5.61-.16,11.09.57,16.45.01.76,0,1.52,0,2.28-.15,14.17-11.31,23.57-25.32,21.34-7.34-1.17-12.34-8.35-12.22-15.65.51-4.43.43-9.07-.24-13.92-.5-6.53,4.86-7.18,10.25-6.71l.1-37.16c.14-2.56.93-3.74,3.53-2.49.36,8.7-1.29,57.97,1.03,60.96,2.68,3.45,6.25,1.44,8.07-1.8Z"/>
      <path class="st10" d="M32.22,174.56c1.06-.17,2.31.1,3.41,0,.07.75-.03,1.52,0,2.27-1.88,1.18-1.14,4.32-1.16,6.24-.17,16.11.18,32.26,0,48.36-1.99.27-1.07-2.58-1.13-3.96-.12-2.84.09-5.72,0-8.55-13.84-1.68-10.19,5.07-10.2,15.45,0,1.46-1.18,2.6-1.18,2.75-.01-.76.02-1.52,0-2.28-.07-3.03-1.03-5.57-1.18-8.49-.84-16.03.76-32.68,0-48.77l2.23-1.36c3.13.11,6.54-1.25,9.19-1.67Z"/>
      <path class="st89" d="M537.31,163.18c.89,18.98.89,37.94,0,56.88-.22.4.17,1.59-.01,2.28l-2.26-1.14c-.51-19.29.68-38.74,0-58.02h2.28Z"/>
      <path class="st156" d="M541.86,157.49v13.65s-2.28-3.41-2.28-3.41l-.57-.63c.31,17.02.5,34.03.56,51.05l-1.13.77c-.25.22-1.09,1.06-1.14,1.14.62-18.89-.84-38.01,0-56.88.19-4.29-.84-5.1,4.55-5.69Z"/>
      <path class="st173" d="M694.3,226.89c2.96-.94,8.5,5.18,6.83,7.96,7.7,7.02,14.04,9.26,15.93-3.41.18-1.22,1.3-2.24,0-4.54,14.48-1.9,8.26,4.1,11.37,13.64-4.22,16.61-23.72,15.13-33.55,4.54-3.87-4.16-3.04-8.87-2.85-14.27.08-2.19-1.17-4.56,2.27-3.93Z"/>
      <path class="st92" d="M98.2,181.38c.06-4.54-.04-9.12,0-13.66l14.79-1.13v76.22c0,.52-8.57.01-10.24,1.14-2.84-8.54-6.94-16.7-10.24-25.03-2.8-1.02-3.62-3.03-2.28-5.69-1.05-2.68-1.4-6.93-2.28-9.1l-1.18.48c-.21,13.58-.58,27.07-1.09,40.47-.51.22-1.62-.19-2.28,0-4.29.38-4.8-1.17-.96-3.91.49-1.25.26-23.24-.28-24.33-.16-.34-4.7-.51-5.06-.23-1.08.87-.82,22.93.06,26.84l-1.73,2.77c-1.14-.04-2.28.06-3.42,0v-73.38c.77-5.32,7.33-1,10.24-3.98,7.16,10.27,10.98,24.37,14.8,36.4,1.98.27,1.07-2.58,1.12-3.96.24-6.24-.06-12.55,0-18.78,0-.38,0-.76,0-1.14Z"/>
      <path class="st139" d="M563.48,206.41c2,1.19,2.02,3.09,2.29,5.11,1.07,8.21,1.04,16.49,1.42,24.75.16,3.52,1.96,1.99-2.57,1.99-1.13-1.11-1.02-1.15-1.2-2.73-.96-8.44.12-20.2.06-29.13Z"/>
      <path class="st159" d="M565.75,175.69c.58,4.21,3.45,17.53-2.28,18.2,0-8.33,0-16.7,0-25.03,2.03,1.83,1.94,4.4,2.28,6.83Z"/>
      <path class="st2" d="M692.02,213.24c5.02,1.25,13.63,7.47,12.51,12.51,2.92,4.1,4.5,6.15,2.26,11.37l-5.68-2.27c-3.27-2.98-4.29-4.33-6.83-7.96-1.08-1.54-.89-3.91-3.41-5.69-2.46-1.73-3.31-.69-4.55-1.14-.64-2.55-2.21-11.13-.5-12.76.24-.23.89-.05,1.64.25,1.43,1.91,2.98,3.9,4.55,5.69Z"/>
      <path class="st22" d="M704.54,225.75c-3.23-4.54-8.61-8.09-12.51-12.51,6.99-2.41,10.82,5.32,15.38,9.1l-2.87,3.41Z"/>
      <path class="st177" d="M684.06,200.72l.92.79c.76,3.94-1.32,4.69,2.5,4.9-.02.38.01.76,0,1.14,0,.15-1.09,1.25-1.19,2.74-.22,3.24.23,6.54.05,9.77-2.16-.77-.22-4.68-2.28-5.69-1.39-5.17-1.39-9.72,0-13.65Z"/>
      <path class="st127" d="M687.47,204.13l5.69.58v1.69c-1.89-.06-3.81.11-5.69,0,0-.15,0-2.16,0-2.28Z"/>
      <path class="st175" d="M678.37,175.69c1.76,2.66,2.04,8.74,4.55,11.38-.04,4.25,1.13,8.77,1.14,13.65,0,4.54-.06,9.11,0,13.65.02,1.52-.03,3.03,0,4.55-1.39.9-2.63.95-3-.61.75-13.1-1.6-14.8-7.05-5.09l-2.47-1.12-1.12-.48-.31-18.34-1.4-.6c.09-4.16-4.47-16.92-6.95-7.79-1.28-.38-2.04.13-2.73,1.04-1.6,11.96-2.36,23.71-2.28,35.27.03,3.71-.84,5.43-3.39,1.42.67-10.98-5.89-24.43-6.41-4.94l-2.71.1c.63-12.13-1.72-25.37,2.22-37.03.88-2.62,4.79-8.13,4.61-9.61,6.07-4.69,12.85-6.17,19.74-2.11.76.45,7.29,6.24,7.56,6.66Z"/>
      <path class="st177" d="M644.24,217.79c0-.15,1.09-1.27,1.18-2.75.21-3.24-.23-6.54-.05-9.77,10.1-1.88,10.42,11.52,10.23,18.77l1.14-2.84c1.07,5.17,3.37,8.91,6.89,11.22,5.64-.99,6.64-14.74,6.75-19.73l1.14-.59c4.21-1.78,4.16-10.52,10.31-6.32,2.77,1.89-.71,10.59,2.2,13.15.05,2.27-.04,4.55,0,6.83-1.75,5.3-5.17,17.57-10.24,20.48-2.35,1.35-9.1,1.49-11.88,1.06-11.15-1.74-17.69-19.73-17.7-29.5Z"/>
      <path class="st138" d="M634.01,241.68h-13.66c.12-19.32-.14-38.7,0-58.02.05-6.05-.03-12.15,0-18.21,3.78.39,8.31-.56,11.95,0,4.14.64,1.69,3.17,1.65,6.19-.27,20.54-2.18,50.56.06,70.03Z"/>
      <path class="st81" d="M75.45,246.23c-2.55-10.12-.47-21.42-1.14-31.86,2.78.33,9.05-1.29,10.08,1.87.61,1.87.64,24.36.18,27.06-.24,1.38-2.79.41-3.99.65l2.83,1.14c-3.3.96-4.1,1.28-7.96,1.14Z"/>
      <path class="st130" d="M90.24,213.24c.74,1.89,1.52,3.79,2.28,5.69l-4.54,10.24c.14-4.72-.24-9.51-.01-14.24.13-2.79-.82-3.72,2.28-1.69Z"/>
      <path class="st81" d="M87.96,204.13c-3.67,11.73,1,27.95-1.1,39.32-.21,1.16-.07,1.16-1.17,1.63v-42.09c1.51-.22,1.69-.32,2.28,1.13Z"/>
      <path class="st13" d="M583.95,179.11c1.01.21.97.6,0,1.14.57,13.24.78,26.52.63,39.84.46,3.3,1.79,3.7,4.02,2.82,6.46-2.53,6.41-21.02,5.99-26.94.25-1.93.87-3.38,1.88-4.34l1.27.11c.23,5.83.57,11.48,1,16.95-.33-6.52-.78-13.29-1.35-20.3l1.35-.75c-2.41-6.11,10.23-5.64,10,2.09.64,7.81,1.09,15.65,1.37,23.51.84.23.79.62,0,1.14-3.76,19.83-13.38,27.92-34.13,22.75,4.27-.24,2.35-.57-5.78-.97-1.26-1.61.26-37.93,1.83-40.61,3.82-6.5,12-5.88,9.63,2.34,1.13,8.33.97,18.13,0,26.73,1.03-9.55,1.14-19.4.31-29.57-1.75-1.74-2.35-19.63-.78-20.74.74-.53,1.85-.14,2.75.26,2.69,1,2.69,2.51,0,4.55Z"/>
      <path class="st184" d="M589.64,162.04c.81.15,6.84,3.31,7.89,4.05,8.69,6.14,11.85,18.77,12.58,28.94.79,4.85.79,9.78,0,14.79,1.37.31,1.06,2.53,0,3.41-3.08-5.27,1.71-24.79-5.3-27.14-1.7-.57-6.08-.08-6.08,1.55v21.05h-1.13c-.67-5.41,1.43-12.33-1.15-17.06l-1.18-.37c-1.1-4.02-2.24-7.99-3.41-11.93l-7.93-4.76c-1.89,1.18-1.13,4.32-1.16,6.24-.16,13.24.57,26.63.02,39.84-.06,1.4.87,4.22-1.14,3.97v-26.73c0-6.17-5.5-5.64-8.21-.25-1.98,3.95-3.4,37-2.04,38.36.43.43,8.44-.33,10.24,0,.09,2.02-4.29,1.13-5.68,1.13-2.27,0-4.56.01-6.83,0v-76.23c5.93.65,14.93.08,20.48,1.14Z"/>
      <path class="st35" d="M611.25,214.37h-1.14c.07-.37-.06-.77,0-1.14.17-1.05-.13-2.32,0-3.41.17-4.27.55-8.44,1.14-12.51h1.14c.29,6.34-.25,10.97-1.14,17.06Z"/>
      <path class="st34" d="M124.37,241.68v-76.22s13.65-1.14,13.65-1.14c.02,9.47-.04,18.98,0,28.44.06,15.91-.05,31.87,0,47.78-4.55.18-9.12.71-13.66,1.13Z"/>
      <path class="st171" d="M42.46,179.11c.12-2.16-1.26-5.34,2.27-4.54v60.29c-.11.37.15.88,0,1.14-.53-2.65-4.4-4.3-4.65-6.21-.84-6.44,2.12-16.98,2.42-23.89.38-8.88-.55-17.92-.05-26.78Z"/>
      <path class="st132" d="M45.87,217.79c.3-14.76-.23-29.6,0-44.36l13.65-1.15v56.88c0-.15-1.12-1.26-1.19-2.75-.2-4.37.24-8.81.05-13.18-2.28.15-5.02-.44-7.19.21-2.85.86-2.03,4.89-5.32,4.34Z"/>
      <path class="st13" d="M611.25,197.31c.38,5.09-.65,8.28-1.14,12.51-.25-4.89.35-9.92,0-14.79,1.11.31,1.07,1.31,1.14,2.28Z"/>
      <path class="st168" d="M318.89,158.63c.3.2,1.53-.56,2.37.68,2.69,3.96.75,17.94,6.14,18.36,6.56.51,5.94-14.64,9.68-17.9-2.62,15.61-6.82,32.19-10.24,47.78l-2.26,1.13c-.8-1.42-.83-6.21-1.25-6.75-.33-.43-2.05.11-2.18-.07-6.68-9.65-13.96-13.94-19.34-21.61-2.75-15.17,11.73-4.8,16.92,1.29,3.81,1.42,2.76-14.48,1.28-17.22-.07-2.02.09-3.92-1.14-5.69Z"/>
      <g>
        <path class="st52" d="M315.48,156.36c2.57-1.39,4.41-.87,3.41,2.28,2.22.73,3.35,4.57,1.14,5.69,1.41,5.41,1.75,10.95,1.01,16.61-3.53-.45-7.03-2.62-10.5-6.52-9.45-6.59-10.55-5.07-8.71,5.84l2.98.2,12.97,13.52c3.13,2.48,4.26,5.11,3.4,7.9,11.74,21.6-9.79,46.6-32.99,30.71-1.73-.13-3.24-1.27-4.55-3.41-.42-.33-.78-.75-1.14-1.14-2.32.64-2.93-.62-1.14-2.28l-2.28-9.94c1.32-2.25,2.07-5,2.28-8.27-4.49-.87-2.08-5.84,2.12-4.61,23.35,26.44,27.2,8.7,4.05-6.44-4.16-2.96-5.84-6.48-5.04-10.57-4.8.32-4.74-12.4-2.28-14.79-.54-.22-1.05-.48-1.45-.85-2.61-2.43,5.61-12.04,8.27-13.94,2.46-6.69,5.87-7.14,12.23-7.34,5.12-.16,15.78,1.72,16.21,7.34Z"/>
        <g>
          <path class="st192" d="M282.49,185.93c4.29,11.52,23.43,17.95,22.85,27.87-.84,14.48-20.67-4.94-23.43-9.67-1.23.31-.32,2.42-.56,3.41l-.86,8.47c-2.07.69-3.68-1-4.83-5.06-1.17-7.19.94-4.57,3.07-10.01,1.89-4.83.86-10.6,3.75-15.02Z"/>
          <path class="st158" d="M281.35,225.75c-2.55-5.67-4.54-7.77-5.69-14.79,1.62,1.47,2.07,3.95,4.54,3.41-.91-2.84.64-4.77,1.14-6.82v18.2Z"/>
          <g>
            <path class="st160" d="M321.17,201.86c1.71-4.4,3.61-2.51,5.69,5.69-1.32,6.01-3.05,20.53-5.69,25.03-.19.33-.79.73-1.14,1.14-2.79,3.24-4.82,3.29-7.96,4.55-7.66,2.61-20.95,2.62-23.89-5.69,22.99,10.15,41.25-6.92,32.99-30.71Z"/>
            <path class="st110" d="M316.61,174.56c-4.36-4.61-17.91-15.5-21.13-4.58-3.61,12.25,21.8,21.45,24.28,36.13,3.09,18.24-9.17,33.49-28.16,25.89-12.73-5.09-5.64-11.98-9.11-22.17l10.08,8.68c7.01,5.06,16.18,2.93,14.93-6.89-.93-7.25-17.41-16.24-21.83-23.75-11.36-19.3,5.2-45.46,27.19-30.6,6.58,4.45,2.94,10.21,3.75,17.28Z"/>
            <path class="st93" d="M301.83,180.25c-2.59-3.69-5.56-7.78-.61-11.49s14.83,8.85,18.8,11.49c-.12-5.29.2-10.64.01-15.93,3.64,2.25,3.03,19.95.55,20.47-2.6.54-17.11-19.63-18.75-4.55Z"/>
          </g>
        </g>
      </g>
      <path class="st183" d="M233.57,192.76c.89,10.17.84,20.54,0,30.71h-2.28c-1.2-.71-.92-2.51,0-3.41l-10.24-1.13c-1.33-11.46,1.56-6.82,8.32-9.32,4.39-1.62,1.69-16.25-2.63-19.12v-1.14c2.54-2.05,5.73.98,6.83,3.41Z"/>
      <path class="st59" d="M233.57,180.25c.86,4.12.88,8.4,0,12.51-3.09.51-4.54-1.93-6.83-3.41s-.88-2.35-5.69-2.28c-2.09-8.5,6.23-6.53,12.51-6.83Z"/>
      <g>
        <path class="st62" d="M213.1,156.36c4.02-.87,17.86-2.61,19.78.83.13.24-.51,4.86-1.58,4.85,1.71,2.25,1.51,8.93-1.14,10.24l-.23,1.15c-4.98-.03-9.84.35-14.56,1.12,2.48,1.66,3.24,5.22,2.28,10.66,1.52-.37,2.59.57,3.41,1.86,1.76-4.11,7.57-1.75,5.69,2.28.47.35.45.73,0,1.14,2.97,10.04,1.88,18.05-9.99,18.02l.7,9.17c3.83,1.43,8.06,2.23,12.7,2.39.64,1.86-.04,14.97-.67,15.43-.43.31-1,.43-1.6.5l-2.57,2.41c-7.38,1.52-20.74,3.05-27-.13-.97-.01-2.82.22-3.41,0,0-15.53,0-31.11,0-46.64,0-8.52.13-17.08.02-25.61-.02-1.93.73-5.06-1.16-6.24,5.55-2.34,12.77-3.19,19.34-3.41Z"/>
        <g>
          <path class="st176" d="M196.03,159.77l29.58-1.14v12.53s-15.93,1.13-15.93,1.13v17.06c1.92.32,10.94-.44,11.38,0,.46.46-.38,9.89.04,11.87-.24,1.47-11.42,1.21-11.42,1.78v19.34l15.96-.64c1.64,1.17,1.65,10.6.61,12.09-1.09,1.57-26.19,2.16-30.22,2.2v-76.22Z"/>
          <path class="st172" d="M226.75,190.48c6.73,1.04,7.68,18.07,3.58,21.16-9.77.46-11.05,6.01-.31,5.98l1.27,2.43c-.12,1.03-.51.97-1.14,0-4.69-.49-10.01.35-14.79,0l-1.14-14.8c16.11,2.03,9.29-4.13,12.52-14.79Z"/>
          <path class="st94" d="M233.57,163.18c.82,5.54.95,11.54,0,17.06l-.4,1.53c-6.25-.47-10.29,1.29-12.12,5.29-1.99.03-3.73.96-5.68,1.13v-13.65c5.37-.18,10.3-.94,14.78-2.28.22-3.57,1.11-6.92,1.14-10.24l2.28,1.14Z"/>
          <path class="st190" d="M231.3,223.47c.19,4.14-.13,8.37,0,12.52-1.13.05-2.28-.05-3.42,0l2.28-15.93c.37.04.76-.03,1.14,0,.03,1.13-.05,2.28,0,3.41Z"/>
          <rect class="st125" x="206.27" y="180.24" width="13.66" height="2.28" transform="translate(31.65 394.43) rotate(-89.98)"/>
          <path class="st197" d="M230.16,172.28c-.05.75.07,1.52,0,2.27h-14.8s.67-1,.67-1l14.12-1.27Z"/>
        </g>
      </g>
      <path class="st182" d="M500.91,156.36c2.4.19,6.69,2.27,10.24,1.13-.34,2.04.45,12.07,0,12.52s-12.52-.34-12.52,1.13v62.57l-13.65-1.14v-62c0-2.71-11.23-1.48-13.66-1.7v-12.53c9.63.58,20.06-.76,29.58,0Z"/>
      <path class="st146" d="M480.43,172.28c.15,0,1.23-1.54,2.27-1.13,1.22,6.17-1.2,13.16-1.22,18.77-.01,4.2,1.36,8.57,1.23,13.71-.05,2.19,1.15,4.56-2.27,3.92-.04-11.74.03-23.53,0-35.27Z"/>
      <path class="st195" d="M519.11,231.44c-2.49-3.59-4.08-7.56-4.53-11.96-2-19.51,1.45-42.14-.02-61.98,1.84,3.39.67,4.27,1.09,7.44.19,1.39,1.18,3.07,1.18,3.36v51.19c0,3.69,6.82,10.56,2.28,11.94Z"/>
      <path class="st195" d="M521.38,233.71l.56-1.11,8.54,4.54-1.13,1.12c-4.21-1.11-4.96-1.68-7.96-4.55Z"/>
      <path class="st189" d="M539.59,167.73c.84,8.49,1.19,15.91,1.18,24.51,0,2.9-1.15,5.77-1.23,8.99-.11,4.31,1.83,14.34,1.15,17-.37,1.45-1.91.4-2.24.69v-54.03c1.73-1.92,1.06,2.08,1.14,2.84Z"/>
      <path class="st0" d="M391.7,217.79c11.77,1.23,15.03-4.31,13.65,12.51h-29.58v-76.22h13.66s1.13,63.7,1.13,63.7c.12-1.03.51-.97,1.14,0Z"/>
      <path class="st66" d="M391.7,215.51v2.28c-.37-.04-.76.03-1.14,0l1.14-63.7v61.43Z"/>
      <path class="st49" d="M462.23,176.83c-3.57-2.87-8.29-6.8-12.51-7.96.71-.74-1.72-3.93,4.42-.43,2.79,1.59,7.65,4.97,8.1,8.39Z"/>
      <path class="st165" d="M671.55,212.1c-.17,5.27.1,24.9-8.29,22.57-3.85-1.07-6.11-10-6.5-13.47-1.02-9.02-.72-26.9,2.28-35.27l1.31,1.99c-.31,10.92-.11,21.78.62,32.6-.03-1.48,1.19-2.19,2.62-2.74,4.01-3.67,3.91-6.42,3.48-13.15l2.21-5.06c-1.69-.16-2.56-1.53-2.63-4.1-.61,1.9-1.63,3.27-3.06,4.1l-2.44-.89c-.03-4.93-.73-9.18-2.11-12.76,1.18-3.29,2.12-9.06,7.25-5.57,6.07,4.14,5.5,24.72,5.27,31.73Z"/>
      <path class="st133" d="M596.47,191.62c.91,9.78,2.39,36.25-12.51,34.13.46-15.12-.62-30.4,0-45.51.32-.99.7-.98,1.14,0,2.46,10.28,3.24,21.02,2.35,32.23,1.01-4.54,1.3-9.22,1.13-13.85l2.21-1.32c2.14-4.29,1.72-7.24-1.25-8.86.84-6.7-1.02-9.82-5.58-9.34.03-1.52-.02-3.04,0-4.55,9.04-1.1,11.85,9.89,12.51,17.06Z"/>
      <path class="st143" d="M583.95,179.11c1.16-5.58,7.95,1.15,8.06,1.84.37,2.34-3.1,4.52-2.36,7.26l3.39-2.27c1.4,4.12,2.25,8.79-2.26,11.37l-2.44-1.68c-.59-5.23-1.67-10.36-3.25-15.39h-1.14c.02-.38,0-.76,0-1.14Z"/>
      <g>
        <path class="st24" d="M340.51,154.08l2,1.51-16.19,73.42c9.34,2.02,11.1-.65,10.9-9.63,3.52-5.35,26.46-4.03,16.94,5.23-.32.99-.7.98-1.14,0-8.06-5-10.74-.86-11.74,8.6-2.25,3.39-17.25,1.93-20.11-.64l-1.28-2.64c3.26-6.55,4.83-13.8,4.79-21.13.95-.03,1.68-.45,2.18-1.26l-.83-3.27c2.32-15.08,6.01-29.91,11.07-44.51.34-2.04,1-5.04,1.14-6.83h1.14l1.14,1.14Z"/>
        <path class="st141" d="M359.85,173.42c4.31,14.29,7.34,28.7,9.1,43.23.41,2.21.74,4.57,1.14,6.83.53,3,1.32,6.01,1.14,9.1-2.58-.42-16.33.61-17.01-.06-.28-.28-.84-6.37-1.19-7.9h1.14l2.45.33c-.64,4.53,10.15,3.36,10.5,2.44l-16-71.48,1.92-1.83c-.95-1.14-.3-1.19,1.14-1.14,1.3,1.29,4.59,16.73,5.69,20.48Z"/>
        <path class="st30" d="M354.16,152.94c-.12.53-.62,1.09-1.14,1.14-1.5,3.8-11.11,3.69-12.51,0-.53-.08-1.01-.59-1.14-1.14,3.81,1.16,12.8-1.97,14.79,0Z"/>
        <path class="st200" d="M353.02,154.08l17.06,76.21-14.74-.04c.38-2.12-.87-3.97-1.19-5.64s.23-3.9,0-5.69l-14.78.02c.1,14.19-3.15,13.14-15.93,12.5l17.06-77.35c2.99.43,9.37.3,12.51,0Z"/>
        <polygon class="st57" points="350.75 205.27 342.78 205.27 346.21 181.39 350.75 205.27"/>
      </g>
      <path class="st128" d="M663.58,199.58c2.14.63,2.14,2.14,0,4.55,3.46,2.67,3.7,11.26,0,13.65-.3,4.04-1.5,8.5-2.29,12.5-1.76.04-1.89-3.93-2.11-5.26-2.16-13.16-1.17-25.91-.15-39.1l2.26-1.14,2.29,14.79Z"/>
      <path class="st14" d="M669.27,199.58c.21,7.56-.14,15.19-.01,22.75-4.12-2.36,2.18-5.69-5.68-4.55.32-4.4-.07-9.18,0-13.65.86-3,2.02-6.95,5.69-4.55Z"/>
      <path class="st166" d="M663.58,199.58c.24-5.48-1.44-5.63,5.1-6.84,1.07-.05.55,5.45.58,6.84l-5.69,4.55c.02-1.51-.07-3.04,0-4.55Z"/>
      <path class="st58" d="M590.78,197.31c.48,7.04-.32,20.16-5.68,25.03v-42.09c3.82,2.75,5.37,12.51,5.68,17.06Z"/>
      <g>
        <path class="st150" d="M280.22,171.14c-.25,4.01.89,11.06,2.28,14.79,1.53,9.24-2,17.83-6.83,25.03,3.57,4.63,4.76,8.75,5.69,14.79.3.68,1.1,1.74,1.14,2.28.01.17-1.15,1.02-1.06,1.81.24,2.12,2.17,7.3.4,8.55-7.22,1.16-16.86,3.69-20.95-3.54l.25-1.53c4.69.31,9.98.52,14.98-.53,2.97,1.83,3.2-1.65.69-10.45-3.05-.55-6.28-9.78-7.05-13.36-1.91-8.79-.46-11.71,7.05-16.22-.71-1.23-.71-3.13,0-5.69-.78-.1-1.39-.21-1.41-.4-.16-1.42-.13-13.14.05-14.45.06-.42.64-.76,1.36-1.08v-1.14c1.14-3.09,3.63-2.03,3.41,1.14Z"/>
        <path class="st73" d="M252.91,234.85c.75-4.58-1.56-15,1.14-18.2-.59,3.3,1.31,17.4-1.14,18.2Z"/>
        <path class="st6" d="M276.8,192.76l-2.29-.58,2.29-5.1c.56,2.64,1.15,1.9,0,5.69Z"/>
        <g>
          <path class="st191" d="M272.25,164.32c2.06,4.53,3.18,8.03,3.55,12.97.46,6.24-1.14,12.83-2.65,18.16-5.79,4.88-5.11,7.64-3.17,14.22,3.53,7.35,5.43,14.61,5.68,21.77-.19.02-1.26,1.12-2.76,1.17-13.42.49-10.48.1-15.44-11.41-.43-1.57-.73-3.02-1.14-4.55-3.11-1.93-3.54-3.02-2.28-6.83-1.62.04-2.76-1.85-3.41-5.69-.66,10.04-.84,20.14-.55,30.28-.47.58-13.53.92-14.23-.7-.99-24.55-.97-51.42,0-76.22,4.95-1.54,13.62-2.25,19.4-1.98,6.88.32,15.49.92,17,8.81Z"/>
          <g>
            <path class="st99" d="M234.71,235.99c-2.02-.68-1.09-9.78-1.14-12.51-.18-10.21-.05-20.51,0-30.71.02-4.16-.04-8.35,0-12.51.06-5.66-.25-11.42,0-17.06.11-2.57-.83-4.83,1.14-6.83v79.63Z"/>
            <g>
              <path class="st108" d="M275.67,231.44c.64-.87,1.39-1,1.47-.19.07.68-5.49-10.59-.33-8.91,1.28,3.68,2.37,7.6,3.41,11.37l-19.33,1.14c-.4-.71-.84-1.51-1.14-2.28-1.19-3.04-1.44-8.34-2.28-11.38,2.69.78,4.81,3.7,6.35,8.76,4.44-.06,8.39.44,11.85,1.48Z"/>
              <path class="st108" d="M276.8,170.01c.08.35-.07.77,0,1.14-2.02.34-3.54-1.94-4.55-6.83-10.8-13.89-21.46-5.43-36.4-6.83v76.22h13.66c1.2-1.19-1.76-25.84,1.13-29.58.74,2.23,1.88,4.13,3.41,5.69,1.03,2.75,1.48,3.79,2.28,6.83-.58-.18-1.43-1.14-1.72-1.11-.6.07-.41.93-.56,1.11-.37,6.08-.75,12.15-1.14,18.2-.87.28-17.34,1.43-18.2,1.14-1.07-26.27-.97-53.38,0-79.63,1.11-1.13,1.15-1.02,2.73-1.2,4.85-.55,22.86-.67,27.18.3,6.77,1.52,10.76,8.58,12.18,14.55Z"/>
              <path class="st102" d="M276.8,171.14c1.28,7.23-.86,11.85,0,15.93v5.69c-1.71,5.64-6.65,6.69-6.92,10.8s5.22,13.88,6.92,18.78c-3.49,2.01,2.11,8.77,1.13,10.24-.32.48-1.85-1.17-2.26-1.14-.86-6.15-10.55-27.51-8.55-31.82.85-1.84,3.99-3.65,5.39-7.18,3.64-9.2,1.71-18.84-.25-28.12,1.98,2.55,2,5.28,4.55,6.83Z"/>
              <path class="st45" d="M250.64,204.13h2.27c-.32,2.14.43,3.77,1.14,5.69-4.26,3.73-2.04,14.07-2.28,19.92-.06,1.38.86,4.23-1.13,3.96v-29.57Z"/>
              <g>
                <path class="st39" d="M249.5,170.01c15.54-3.78,14.6,24.25,0,21.61v-21.61Z"/>
                <path class="st33" d="M257.45,172.29c1.53,1.15,2.97,17.8-3.39,17.05,0-1.66-1.25-20.57,3.39-17.05Z"/>
              </g>
            </g>
          </g>
        </g>
      </g>
    </g>
  </g>
</svg>